<svg width="85" height="25" viewBox="0 0 85 25" fill="none" xmlns="http://www.w3.org/2000/svg">
<mask id="mask0_6813_51250" style="mask-type:luminance" maskUnits="userSpaceOnUse" x="0" y="0" width="85" height="25">
<path d="M84.1445 0H0.144531V24.192H84.1445V0Z" fill="white"/>
</mask>
<g mask="url(#mask0_6813_51250)">
<path d="M35.115 16.025H29.8844L28.6886 18.3571H25.8594L32.3052 5.76758H33.0441L39.0233 18.3571H36.2233L35.115 16.025ZM33.9288 13.509L32.6066 10.7027L31.1774 13.509H33.9288Z" fill="#4B5563"/>
<path d="M43.5821 13.0255C43.164 12.9191 42.3863 12.7159 41.6668 12.232C40.6557 11.5643 40.0918 10.5967 40.0432 9.39674C39.9849 8.39035 40.3154 7.50976 40.9668 6.83239C41.9098 5.8647 43.2612 5.59375 43.9126 5.59375C45.7501 5.59375 46.7807 6.26145 47.7043 6.85174L48.1223 7.12269L46.8001 9.26126L46.3529 8.97096C45.5363 8.44841 45.021 8.10972 43.9126 8.10972C43.7473 8.10972 43.1154 8.23552 42.7946 8.57421C42.6877 8.68066 42.5613 8.88387 42.5807 9.29029C42.6001 9.93864 43.0474 10.2967 44.2043 10.587C44.3501 10.6257 44.4571 10.6547 44.564 10.6934C45.7696 11.1095 46.7126 11.6611 47.364 12.3675C48.0154 13.0836 48.3557 13.9352 48.3557 14.8254C48.3557 15.706 47.9765 16.6253 47.3445 17.322C46.6057 18.1446 45.5751 18.6187 44.4376 18.6187C43.8737 18.6187 43.1154 18.58 42.2209 18.3091C41.0835 17.951 40.0724 17.322 39.207 16.4027L41.0445 14.6803C42.3765 16.1028 43.8737 16.1028 44.4376 16.1028C45.4876 16.1028 45.8279 15.1544 45.8279 14.8254C45.8279 14.1384 45.0501 13.5094 43.7376 13.0642L43.6793 13.0449L43.5821 13.0255Z" fill="#4B5563"/>
<path d="M59.2543 5.76748V8.28348H55.7543V18.3667H53.2265V8.27381H49.707V5.75781H59.2543V5.76748Z" fill="#4B5563"/>
<path d="M67.3065 18.3569L64.944 13.3056H63.6801V18.3376H61.1523V5.74805H65.9162C68.0066 5.74805 69.7081 7.45118 69.7081 9.54137C69.7081 11.0703 68.8036 12.3767 67.4912 12.9766L69.9998 18.3666H67.3065V18.3569ZM63.6801 8.26403V10.7993H65.9162C66.6162 10.7993 67.1801 10.2381 67.1801 9.54137C67.1801 8.84464 66.6162 8.26403 65.9162 8.26403H63.6801Z" fill="#4B5563"/>
<path d="M80.2437 16.025H75.0136L73.8174 18.3571H70.9883L77.4341 5.76758H78.1733L84.1427 18.3571H81.3425L80.2437 16.025ZM79.0482 13.509L77.7258 10.7027L76.2971 13.509H79.0482Z" fill="#4B5563"/>
<path fill-rule="evenodd" clip-rule="evenodd" d="M12.2001 24.0961C18.8582 24.0961 24.2557 18.7239 24.2557 12.0969C24.2557 5.46989 18.8582 0.0976562 12.2001 0.0976562C5.54198 0.0976562 0.144531 5.46989 0.144531 12.0969C0.144531 18.7239 5.54198 24.0961 12.2001 24.0961ZM12.054 5.4196C11.033 7.5633 10.0121 9.70933 8.99112 11.8554C7.97042 14.001 6.94972 16.1466 5.92897 18.2898H8.55398C9.38041 16.6301 10.2068 14.9679 11.0333 13.3059C11.8596 11.644 12.686 9.9821 13.5123 8.32266L12.054 5.4196ZM13.5119 13.3538C13.9324 12.4829 14.3529 11.612 14.7758 10.7411C15.3932 11.9991 16.0081 13.2571 16.6231 14.5151C17.238 15.7731 17.8529 17.031 18.4702 18.289H15.6508C15.4904 17.9164 15.3275 17.5463 15.1646 17.1761C15.0018 16.806 14.839 16.4359 14.6786 16.0633H12.248H12.1994L12.248 15.9665C12.6709 15.0956 13.0914 14.2247 13.5119 13.3538Z" fill="#4B5563"/>
</g>
</svg>
