<svg width="214" height="36" viewBox="0 0 214 36" fill="none" xmlns="http://www.w3.org/2000/svg">
<g clip-path="url(#clip0_6813_51226)">
<path d="M24.6396 2.26227C23.2305 3.52432 22.3538 5.2801 22.3538 7.22924V18.774C22.3538 20.4701 20.8471 21.8525 18.9985 21.8525H10.5626C8.71395 21.8525 7.20838 20.4701 7.20838 18.774C7.20838 17.0778 8.71395 15.6944 10.5626 15.6944H19.8113V9.53838H10.5626C9.99532 9.53838 9.43367 9.58055 8.88435 9.66284C4.12661 10.3993 0.5 14.2009 0.5 18.774C0.5 22.7946 3.30151 26.2136 7.20838 27.4777C7.74761 27.6526 8.30813 27.7976 8.88435 27.8758C9.43367 27.9684 9.99532 28.0146 10.5626 28.0146H18.9985C19.5736 28.0146 20.1308 27.9684 20.6756 27.8758C21.2507 27.7976 21.8123 27.6526 22.3549 27.4777C26.2618 26.2136 29.0644 22.7946 29.0644 18.774V15.6944C32.774 15.6944 35.7762 12.9389 35.7762 9.53941H29.0644V7.22821C29.0644 6.80135 29.4411 6.46192 29.8996 6.46192H31.5812C33.6271 6.46192 35.4869 5.71827 36.8468 4.49941C38.0654 3.41015 38.8893 1.94444 39.0821 0.300781H29.9007C27.8604 0.30181 26.0006 1.05061 24.6396 2.26227Z" fill="#F06434"/>
<path d="M10.5612 29.5469C8.71036 29.5469 7.20703 30.921 7.20703 32.6202C7.20703 34.3174 8.71036 35.6977 10.5612 35.6977C12.4154 35.6977 13.9188 34.3174 13.9188 32.6182C13.9188 30.921 12.4143 29.5469 10.5612 29.5469Z" fill="#F06434"/>
<path d="M20.627 29.5469C18.7739 29.5469 17.2773 30.921 17.2773 32.6202C17.2773 34.3174 18.7739 35.6977 20.627 35.6977C22.4858 35.6977 23.9824 34.3174 23.9824 32.6182C23.9812 30.921 22.4858 29.5469 20.627 29.5469Z" fill="#F06434"/>
<path d="M57.3688 31.3744C55.4563 31.3744 53.7333 31.0967 52.2131 30.5588C50.6851 30.0208 49.4004 29.2247 48.3432 28.1817C47.2861 27.1295 46.4767 25.852 45.9094 24.3452C45.3478 22.8363 45.0664 21.1011 45.0664 19.1365C45.0664 17.1801 45.3881 15.4429 46.0406 13.9329C46.6931 12.4189 47.5798 11.1414 48.7098 10.0953C49.8455 9.0462 51.1694 8.25008 52.6907 7.71317C54.2176 7.17214 55.8487 6.89648 57.5919 6.89648C58.6491 6.89648 59.6076 6.97568 60.4629 7.12071C61.3239 7.2678 62.075 7.43134 62.714 7.61237C63.353 7.7934 63.8822 7.98266 64.3003 8.18631C64.7173 8.391 65.0111 8.535 65.1815 8.62346L63.8183 12.1083C63.2308 11.7668 62.3889 11.45 61.2936 11.1435C60.2029 10.839 59.0157 10.6909 57.7444 10.6909C56.6345 10.6909 55.6043 10.8637 54.6447 11.2093C53.6929 11.5631 52.8633 12.0836 52.1582 12.7861C51.4598 13.4804 50.9116 14.3598 50.5203 15.4192C50.128 16.4807 49.934 17.7078 49.934 19.1015C49.934 20.3481 50.0831 21.4837 50.3903 22.5123C50.6963 23.5552 51.1728 24.447 51.8129 25.1999C52.4519 25.9549 53.2613 26.5422 54.24 26.9598C55.2254 27.3795 56.4059 27.5883 57.7769 27.5883C59.4226 27.5883 60.7667 27.4381 61.797 27.1264C62.8272 26.8271 63.6232 26.534 64.1916 26.2707L65.4449 29.7421C65.1445 29.9313 64.7454 30.1155 64.2431 30.2944C63.7398 30.4755 63.1467 30.6483 62.4551 30.8149C61.7701 30.9836 60.9932 31.1142 60.1401 31.2243C59.2735 31.3199 58.3531 31.3744 57.3688 31.3744Z" fill="#F06434"/>
<path d="M75.7164 12.75C77.1906 12.75 78.4305 12.9166 79.4361 13.2571C80.4406 13.5934 81.25 14.0666 81.8497 14.6765C82.4506 15.2823 82.88 16.025 83.1344 16.8921C83.3957 17.7602 83.5268 18.7065 83.5268 19.7463V30.4641C82.834 30.5947 81.797 30.7572 80.4137 30.9506C79.0247 31.1398 77.4574 31.2437 75.7164 31.2437C74.5618 31.2437 73.5035 31.1357 72.545 30.9321C71.5865 30.7274 70.7704 30.4054 70.0977 29.9498C69.4184 29.5054 68.8904 28.9212 68.5126 28.2022C68.1336 27.4709 67.9453 26.5853 67.9453 25.53C67.9453 24.5138 68.1549 23.6498 68.5854 22.9565C69.0159 22.2612 69.6033 21.6914 70.3376 21.2511C71.0708 20.8068 71.9262 20.4941 72.8992 20.3049C73.8712 20.1115 74.8824 20.0097 75.9395 20.0097C76.4283 20.0097 76.9451 20.0415 77.4866 20.1002C78.0281 20.1629 78.6032 20.2503 79.2153 20.3871V19.7124C79.2153 19.2423 79.1558 18.7908 79.0325 18.3588C78.9081 17.9371 78.6917 17.5575 78.3857 17.2284C78.0785 16.9044 77.6738 16.6483 77.1716 16.4683C76.6693 16.2873 76.0359 16.1978 75.2736 16.1978C74.2434 16.1978 73.2961 16.2626 72.4351 16.4025C71.5798 16.5351 70.8746 16.6946 70.3365 16.8756L69.7861 13.5636C70.3477 13.3764 71.1683 13.1995 72.2524 13.0185C73.3342 12.8385 74.4889 12.75 75.7164 12.75ZM76.0808 27.9996C77.4586 27.9996 78.5011 27.9255 79.213 27.7949V23.2569C78.9686 23.1962 78.6121 23.1242 78.1424 23.0614C77.6783 22.9966 77.1626 22.9575 76.5965 22.9575C76.1066 22.9575 75.6122 22.9935 75.1088 23.0614C74.5999 23.1262 74.1503 23.2538 73.7456 23.4369C73.3409 23.6179 73.0136 23.8627 72.7658 24.197C72.5203 24.5199 72.4004 24.9355 72.4004 25.4241C72.4004 26.3919 72.7277 27.0677 73.3914 27.4411C74.0584 27.8124 74.9519 27.9996 76.0808 27.9996Z" fill="#F06434"/>
<path d="M99.9606 16.8723C99.5885 16.7581 99.0795 16.6388 98.4259 16.5195C97.7791 16.393 97.0235 16.3292 96.1614 16.3292C95.6715 16.3292 95.1502 16.3744 94.5964 16.466C94.0482 16.5555 93.6558 16.6316 93.4339 16.7036V30.868H88.9766V14.0355C89.8387 13.7413 90.9149 13.4656 92.2007 13.2034C93.4933 12.9442 94.9215 12.8125 96.4955 12.8125C96.7881 12.8125 97.1333 12.832 97.5257 12.867C97.917 12.8968 98.3149 12.9452 98.7062 12.9997C99.0974 13.0614 99.4764 13.1272 99.8485 13.2044C100.214 13.2826 100.507 13.3587 100.73 13.4255L99.9606 16.8723Z" fill="#F06434"/>
<path d="M103.606 8.52158L108.062 7.84375V13.1851H114.913V16.6041H108.062V23.8051C108.062 25.2174 108.303 26.2346 108.8 26.8466C109.29 27.4473 110.125 27.7549 111.301 27.7549C112.11 27.7549 112.83 27.6726 113.459 27.5183C114.086 27.3619 114.587 27.2169 114.952 27.0739L115.682 30.3181C115.174 30.5197 114.491 30.7305 113.657 30.9455C112.823 31.1605 111.84 31.2643 110.708 31.2643C109.335 31.2643 108.19 31.0936 107.262 30.7603C106.341 30.4271 105.612 29.9282 105.07 29.2936C104.534 28.6487 104.149 27.869 103.928 26.9577C103.713 26.0474 103.602 25.0024 103.602 23.8257L103.606 8.52158Z" fill="#F06434"/>
<path d="M119.445 30.8713V7.44141H135.59V11.0589H124.091V17.038H134.297V20.6555H124.091V30.8692H119.445V30.8713Z" fill="#F06434"/>
<path d="M146.224 31.2049C144.906 31.1812 143.803 31.0506 142.928 30.7986C142.056 30.5476 141.369 30.1917 140.848 29.7381C140.34 29.2722 139.972 28.6972 139.761 28.0163C139.554 27.3189 139.453 26.5362 139.453 25.6598V5.31054L143.915 4.63477V24.8833C143.915 25.3759 143.946 25.7946 144.039 26.1289C144.13 26.4775 144.281 26.7573 144.502 26.998C144.724 27.2356 145.018 27.4166 145.396 27.537C145.789 27.6553 146.264 27.7612 146.851 27.8301L146.224 31.2049Z" fill="#F06434"/>
<path d="M167.889 22.0093C167.889 23.4102 167.669 24.6795 167.222 25.8284C166.793 26.9773 166.168 27.9616 165.349 28.7752C164.534 29.5755 163.563 30.2101 162.43 30.6658C161.28 31.108 160.02 31.3354 158.65 31.3354C157.267 31.3354 156.012 31.106 154.89 30.6658C153.754 30.2101 152.792 29.5755 151.98 28.7752C151.171 27.9616 150.539 26.9794 150.083 25.8284C149.626 24.6795 149.398 23.4102 149.398 22.0093C149.398 20.6094 149.626 19.3453 150.083 18.2077C150.539 17.0711 151.18 16.094 152.002 15.2804C152.823 14.4719 153.796 13.8486 154.931 13.4063C156.053 12.9692 157.291 12.748 158.65 12.748C159.995 12.748 161.241 12.9692 162.389 13.4063C163.525 13.8496 164.511 14.473 165.32 15.2804C166.128 16.094 166.76 17.0722 167.216 18.2077C167.658 19.3463 167.889 20.6074 167.889 22.0093ZM163.321 22.0093C163.321 20.2494 162.909 18.8588 162.085 17.8364C161.265 16.8058 160.124 16.2966 158.648 16.2966C157.174 16.2966 156.018 16.8058 155.198 17.8364C154.375 18.8578 153.962 20.2494 153.962 22.0093C153.962 23.7939 154.375 25.1938 155.198 26.2347C156.018 27.2632 157.176 27.793 158.648 27.793C160.124 27.793 161.265 27.2632 162.085 26.2347C162.909 25.1938 163.321 23.7959 163.321 22.0093Z" fill="#F06434"/>
<path d="M183.609 19.745C183.034 21.7219 182.427 23.6546 181.778 25.5389C181.137 27.4274 180.493 29.1934 179.853 30.871H176.186C175.703 29.828 175.18 28.6431 174.644 27.3132C174.096 25.9832 173.557 24.5731 173.023 23.058C172.476 21.5408 171.936 19.962 171.387 18.2916C170.852 16.6212 170.331 14.922 169.809 13.1847H174.52C174.743 14.1351 175.007 15.1534 175.306 16.2427C175.595 17.3402 175.909 18.452 176.223 19.5948C176.552 20.7334 176.88 21.8412 177.22 22.9191C177.574 24.0084 177.917 24.9907 178.258 25.902C178.639 24.8559 178.998 23.7934 179.352 22.6764C179.703 21.5768 180.053 20.4711 180.364 19.3736C180.693 18.2659 180.988 17.1869 181.276 16.1398C181.565 15.0896 181.806 14.1104 182.027 13.1816H185.461C185.682 14.1094 185.929 15.0896 186.189 16.1398C186.462 17.1869 186.757 18.2648 187.054 19.3736C187.365 20.4711 187.692 21.5768 188.044 22.6764C188.409 23.7934 188.768 24.8559 189.131 25.902C189.462 24.9886 189.788 24.0063 190.13 22.9191C190.483 21.8402 190.817 20.7334 191.146 19.5948C191.488 18.4531 191.796 17.3412 192.096 16.2427C192.393 15.1534 192.65 14.1351 192.873 13.1847H197.478C196.967 14.921 196.43 16.6222 195.897 18.2916C195.347 19.962 194.813 21.5408 194.264 23.058C193.727 24.5731 193.192 25.9832 192.641 27.3132C192.105 28.6431 191.57 29.828 191.06 30.871H187.434C186.795 29.1934 186.149 27.4294 185.472 25.5389C184.789 23.6546 184.169 21.7219 183.609 19.745Z" fill="#F06434"/>
<path d="M205.658 27.9237C206.832 27.9237 207.694 27.7992 208.227 27.5359C208.777 27.2705 209.039 26.8355 209.039 26.1998C209.039 25.6135 208.759 25.1373 208.185 24.7516C207.596 24.3679 206.65 23.9483 205.317 23.4926C204.508 23.2293 203.77 22.9362 203.094 22.6368C202.416 22.3252 201.833 21.9724 201.339 21.564C200.854 21.1567 200.472 20.6733 200.184 20.0973C199.896 19.5213 199.761 18.8229 199.761 17.9826C199.761 16.3605 200.413 15.0861 201.719 14.145C203.007 13.2131 204.785 12.7461 207.017 12.7461C208.153 12.7461 209.235 12.8428 210.267 13.0331C211.299 13.2254 212.067 13.4095 212.577 13.5895L211.767 16.9015C211.283 16.703 210.659 16.5189 209.887 16.344C209.129 16.1774 208.242 16.0931 207.239 16.0931C206.327 16.0931 205.593 16.234 205.032 16.5189C204.456 16.7987 204.185 17.2296 204.185 17.819C204.185 18.1111 204.243 18.3693 204.349 18.5966C204.455 18.8249 204.654 19.0337 204.916 19.224C205.189 19.4174 205.544 19.6077 205.985 19.799C206.429 19.9924 206.964 20.1888 207.603 20.3853C208.66 20.7494 209.56 21.1043 210.291 21.4519C211.035 21.7975 211.641 22.1935 212.124 22.6358C212.595 23.0657 212.954 23.578 213.176 24.1416C213.398 24.7043 213.501 25.3728 213.501 26.1648C213.501 27.8527 212.816 29.1426 211.461 30.0004C210.088 30.8778 208.15 31.3015 205.621 31.3015C203.923 31.3015 202.566 31.175 201.534 30.9137C200.499 30.6607 199.773 30.454 199.355 30.2956L200.126 26.8725C200.793 27.1235 201.583 27.3641 202.51 27.5894C203.419 27.8177 204.471 27.9237 205.658 27.9237Z" fill="#F06434"/>
</g>
<defs>
<clipPath id="clip0_6813_51226">
<rect width="213" height="36" fill="white" transform="translate(0.5)"/>
</clipPath>
</defs>
</svg>
