<svg width="121" height="25" viewBox="0 0 121 25" fill="none" xmlns="http://www.w3.org/2000/svg">
<g clip-path="url(#clip0_6813_51329)">
<mask id="mask0_6813_51329" style="mask-type:luminance" maskUnits="userSpaceOnUse" x="0" y="2" width="121" height="20">
<path d="M120.065 2.64258H0.839844V21.8277H120.065V2.64258Z" fill="white"/>
</mask>
<g mask="url(#mask0_6813_51329)">
<path d="M76.2992 11.3327C76.2992 11.3327 75.2695 11.5791 74.3984 11.7871L73.0742 12.0894C73.0707 12.0894 73.0655 12.0894 73.062 12.0894C73.062 11.7312 73.0881 11.3537 73.1735 11.0059C73.2833 10.5602 73.5237 10.0394 73.9419 9.81047C74.3966 9.56229 74.9507 9.53258 75.4316 9.72483C75.9299 9.92232 76.1581 10.4047 76.2557 10.9045C76.2836 11.0443 76.301 11.1841 76.3149 11.3257L76.2992 11.3327ZM79.7525 12.0894C79.7525 8.62379 77.5763 7.13477 74.7957 7.13477C71.6524 7.13477 69.6836 9.31761 69.6836 12.1069C69.6836 15.1391 71.3597 17.114 74.9681 17.114C76.9196 17.114 78.0241 16.7679 79.3378 16.1091L78.8378 13.8389C77.836 14.2898 76.9038 14.5659 75.6598 14.5659C74.2956 14.5659 73.5185 14.0468 73.224 13.0769H79.6655C79.7176 12.8165 79.7525 12.5211 79.7525 12.0894Z" fill="#4B5563"/>
<path d="M47.3929 11.3327C47.3929 11.3327 46.3631 11.5791 45.492 11.7871L44.1679 12.0894C44.1643 12.0894 44.1591 12.0894 44.1556 12.0894C44.1556 11.7312 44.1818 11.3537 44.2671 11.0059C44.3769 10.5602 44.6173 10.0394 45.0355 9.81047C45.4903 9.56229 46.0443 9.53258 46.5252 9.72483C47.0235 9.92232 47.2518 10.4047 47.3493 10.9045C47.3772 11.0443 47.3946 11.1841 47.4085 11.3257L47.3929 11.3327ZM50.8461 12.0894C50.8461 8.62379 48.6699 7.13477 45.8893 7.13477C42.7462 7.13477 40.7773 9.31761 40.7773 12.1069C40.7773 15.1391 42.4535 17.114 46.0617 17.114C48.0132 17.114 49.1177 16.7679 50.4314 16.1091L49.9315 13.8389C48.9296 14.2898 47.9974 14.5659 46.7534 14.5659C45.3892 14.5659 44.6121 14.0468 44.3177 13.0769H50.7591C50.8114 12.8165 50.8461 12.5211 50.8461 12.0894Z" fill="#4B5563"/>
<path d="M39.4246 4.58789H36.2344V16.7657H39.4246V4.58789Z" fill="#4B5563"/>
<path d="M80.4258 7.44606H83.7762L84.4818 9.5992C84.9227 8.53662 85.9158 7.16992 87.6773 7.16992C90.0956 7.16992 91.4075 8.4003 91.4075 11.5706V16.7681H88.0571C88.0571 15.6847 88.0589 14.6028 88.0605 13.5192C88.0605 13.0229 88.0518 12.5266 88.0589 12.0302C88.064 11.5723 88.0971 11.0987 87.8532 10.688C87.6877 10.4101 87.4177 10.2056 87.1268 10.0658C86.536 9.78271 85.8948 9.7897 85.3146 10.0938C85.1718 10.1689 84.4818 10.5429 84.4818 10.716V16.7681H81.1314V9.96097L80.4258 7.44606Z" fill="#4B5563"/>
<path d="M93.9391 9.88938H92.4023V7.44612H93.9391V5.91865L97.2895 5.12695V7.44612H100.657V9.88938H97.2895V12.6262C97.2895 13.7011 97.8071 14.2026 98.5842 14.2026C99.3787 14.2026 99.8281 14.0978 100.501 13.8741L100.898 16.4029C99.9832 16.8015 98.8437 16.992 97.685 16.992C95.2494 16.992 93.9373 15.8314 93.9373 13.5787V9.88938H93.9391Z" fill="#4B5563"/>
<path d="M106.926 14.3382C108.152 14.3382 108.877 13.4539 108.877 12.0348C108.877 10.6156 108.187 9.79947 106.978 9.79947C105.752 9.79947 105.044 10.6139 105.044 12.0854C105.044 13.4731 105.734 14.3382 106.926 14.3382ZM106.961 7.08008C110.104 7.08008 112.4 9.05496 112.4 12.1204C112.4 15.2033 110.104 17.0575 106.926 17.0575C103.765 17.0575 101.52 15.1526 101.52 12.1204C101.52 9.05496 103.748 7.08008 106.961 7.08008Z" fill="#4B5563"/>
<path d="M66.6833 7.41715C66.0909 7.17249 65.42 7.0816 64.7789 7.17423C64.453 7.22142 64.1342 7.3158 63.838 7.4626C63.026 7.86456 62.3937 8.78209 62.0539 9.60001C61.8308 8.65801 61.1809 7.81213 60.2314 7.41891C59.6391 7.17423 58.9682 7.08336 58.327 7.17598C58.0013 7.22317 57.6824 7.31754 57.3862 7.46434C56.576 7.86456 55.9453 8.7786 55.6039 9.59476V9.53535L54.9209 7.44862H51.5703L52.2761 9.96352V16.7689H55.6039V10.6853C55.616 10.6399 55.7642 10.556 55.7902 10.5368C56.1805 10.2589 56.6388 9.97227 57.1266 9.93732C57.625 9.90061 58.1162 10.154 58.4124 10.5507C58.4439 10.5944 58.4734 10.6381 58.5013 10.6836C58.7453 11.0943 58.7122 11.5679 58.7069 12.0258C58.7017 12.5221 58.7086 13.0185 58.7086 13.5148C58.7069 14.5984 58.7051 15.6802 58.7051 16.7637H62.0557V11.5679C62.0557 11.5417 62.0557 11.5155 62.0557 11.491V10.6888C62.0626 10.6451 62.216 10.5577 62.2439 10.5385C62.6341 10.2606 63.0923 9.97401 63.5802 9.93906C64.0785 9.90235 64.5699 10.1558 64.866 10.5525C64.8974 10.5962 64.927 10.6399 64.9549 10.6853C65.1988 11.096 65.1657 11.5696 65.1604 12.0275C65.1552 12.5239 65.1622 13.0202 65.1622 13.5166C65.1604 14.6001 65.1588 15.6819 65.1588 16.7655H68.5092V11.5679C68.5092 10.0439 68.2914 8.08128 66.6833 7.41715Z" fill="#4B5563"/>
<path d="M120.326 7.16992C118.564 7.16992 117.573 8.53836 117.13 9.5992L116.425 7.44606H113.074L113.78 9.96097V16.7665H117.13V10.4783C117.608 10.3944 120.199 10.8733 120.69 11.0533V7.18216C120.571 7.17517 120.451 7.16992 120.326 7.16992Z" fill="#4B5563"/>
<path d="M31.4281 11.3327C31.4281 11.3327 30.3984 11.5791 29.5273 11.7871L28.2031 12.0894C28.1996 12.0894 28.1944 12.0894 28.1909 12.0894C28.1909 11.7312 28.217 11.3537 28.3024 11.0059C28.4122 10.5602 28.6526 10.0394 29.0708 9.81047C29.5255 9.56229 30.0796 9.53258 30.5605 9.72483C31.0588 9.92232 31.287 10.4047 31.3846 10.9045C31.4125 11.0443 31.4299 11.1841 31.4438 11.3257L31.4281 11.3327ZM34.8814 12.0894C34.8814 8.62379 32.7052 7.13477 29.9246 7.13477C26.7813 7.13477 24.8125 9.31761 24.8125 12.1069C24.8125 15.1391 26.4886 17.114 30.097 17.114C32.0485 17.114 33.153 16.7679 34.4667 16.1091L33.9667 13.8389C32.9649 14.2898 32.0327 14.5659 30.7887 14.5659C29.4245 14.5659 28.6474 14.0468 28.3529 13.0769H34.7942C34.8465 12.8165 34.8814 12.5211 34.8814 12.0894Z" fill="#4B5563"/>
<path d="M10.4104 2.64258C5.1242 2.64258 0.839844 6.94012 0.839844 12.2426C0.839844 17.5434 5.1242 21.8427 10.4104 21.8427C15.6965 21.8427 19.9809 17.545 19.9809 12.2426C19.9792 6.94012 15.6949 2.64258 10.4104 2.64258ZM8.01819 16.2412H6.42396V8.24214H8.01819V16.2412ZM14.3968 16.2412H9.61241V14.6421H14.3968V16.2412ZM14.3968 13.0413H9.61241V11.4421H14.3968V13.0413ZM14.3968 9.84127H9.61241V8.24214H14.3968V9.84127Z" fill="#4B5563"/>
</g>
</g>
<defs>
<clipPath id="clip0_6813_51329">
<rect width="120" height="24" fill="white" transform="translate(0.5 0.236328)"/>
</clipPath>
</defs>
</svg>
