<svg width="98" height="25" viewBox="0 0 98 25" fill="none" xmlns="http://www.w3.org/2000/svg">
<mask id="mask0_7639_136453" style="mask-type:luminance" maskUnits="userSpaceOnUse" x="0" y="0" width="25" height="25">
<path d="M18.1436 0.132812H7.09895C3.54074 0.132812 0.65625 3.01731 0.65625 6.57551V17.6201C0.65625 21.1783 3.54074 24.0628 7.09895 24.0628H18.1436C21.7018 24.0628 24.5863 21.1783 24.5863 17.6201V6.57551C24.5863 3.01731 21.7018 0.132812 18.1436 0.132812Z" fill="white"/>
</mask>
<g mask="url(#mask0_7639_136453)">
<path d="M18.1436 0.132812H7.09895C3.54074 0.132812 0.65625 3.01731 0.65625 6.57551V17.6201C0.65625 21.1783 3.54074 24.0628 7.09895 24.0628H18.1436C21.7018 24.0628 24.5863 21.1783 24.5863 17.6201V6.57551C24.5863 3.01731 21.7018 0.132812 18.1436 0.132812Z" fill="#4B5563"/>
<path fill-rule="evenodd" clip-rule="evenodd" d="M12.6195 16.9243C15.2842 16.9243 17.4439 14.7643 17.4439 12.0998C17.4439 9.43529 15.2842 7.27527 12.6195 7.27527C9.95488 7.27527 7.79516 9.43529 7.79516 12.0998C7.79516 14.7643 9.95488 16.9243 12.6195 16.9243ZM12.6195 20.6136C16.6895 20.6136 20.0925 17.7576 20.9338 13.9404H23.2036V10.2588H20.9336C20.0923 6.44175 16.6894 3.58594 12.6195 3.58594C8.54969 3.58594 5.14679 6.44175 4.30543 10.2588H2.03516V13.9404H4.30534C5.14656 17.7576 8.54955 20.6136 12.6195 20.6136Z" fill="#FEF8F5"/>
</g>
<path fill-rule="evenodd" clip-rule="evenodd" d="M35.2241 16.1955C37.3053 16.1955 38.9926 14.5084 38.9926 12.4273C38.9926 10.3461 37.3053 8.65897 35.2241 8.65897C33.1431 8.65897 31.4558 10.3461 31.4558 12.4273C31.4558 14.5084 33.1431 16.1955 35.2241 16.1955ZM35.2241 19.0772C38.8968 19.0772 41.8742 16.0999 41.8742 12.4273C41.8742 8.75462 38.8968 5.77734 35.2241 5.77734C31.5516 5.77734 28.5742 8.75462 28.5742 12.4273C28.5742 16.0999 31.5516 19.0772 35.2241 19.0772Z" fill="#4B5563"/>
<path fill-rule="evenodd" clip-rule="evenodd" d="M43.4271 14.2913C43.4271 14.305 43.4275 14.3187 43.4275 14.3324V13.4936V14.2153C43.4275 16.897 45.5984 19.0716 48.2787 19.0772C48.2798 19.0772 48.281 19.0772 48.2819 19.0772C48.2844 19.0772 48.2868 19.0772 48.2895 19.0772C48.2919 19.0772 48.2944 19.0772 48.2969 19.0772C48.2977 19.0772 48.299 19.0772 48.3 19.0772C49.2706 19.0751 50.1747 18.7885 50.9332 18.2963L49.585 16.0789C49.2176 16.3348 48.7711 16.4848 48.2895 16.4848C47.0361 16.4848 46.02 15.4688 46.02 14.2153V10.7018H50.2074V8.1094H46.02V7.90999H46.0196V4.12109H43.4266V8.1094H42.0312V10.7018H43.4266L43.4271 14.2913Z" fill="#4B5563"/>
<path fill-rule="evenodd" clip-rule="evenodd" d="M52.2046 14.2913C52.2046 14.305 52.2046 14.3187 52.2046 14.3324V13.4936H52.205V14.2153C52.205 16.8973 54.3765 19.0721 57.0571 19.0772C57.0584 19.0772 57.0594 19.0772 57.0607 19.0772C57.0628 19.0772 57.0647 19.0772 57.0668 19.0772C57.0688 19.0772 57.0709 19.0772 57.0728 19.0772C57.074 19.0772 57.0753 19.0772 57.0761 19.0772C58.0476 19.0755 58.9518 18.7887 59.7104 18.2963L58.3626 16.0789C57.9952 16.3348 57.5484 16.4848 57.0668 16.4848C55.8133 16.4848 54.7972 15.4688 54.7972 14.2153V10.7018H58.9846V8.1094H54.7972V7.91V4.12109H52.2038V8.1094H50.8086V10.7018H52.2038L52.2046 14.2913Z" fill="#4B5563"/>
<path fill-rule="evenodd" clip-rule="evenodd" d="M66.1732 16.1955C68.2545 16.1955 69.9414 14.5084 69.9414 12.4273C69.9414 10.3461 68.2545 8.65897 66.1732 8.65897C64.092 8.65897 62.4051 10.3461 62.4051 12.4273C62.4051 14.5084 64.092 16.1955 66.1732 16.1955ZM66.1732 19.0772C69.8457 19.0772 72.8231 16.0999 72.8231 12.4273C72.8231 8.75462 69.8457 5.77734 66.1732 5.77734C62.5006 5.77734 59.5234 8.75462 59.5234 12.4273C59.5234 16.0999 62.5006 19.0772 66.1732 19.0772Z" fill="#4B5563"/>
<path d="M73.75 19.063V4.13672H76.4481V12.4067C77.0858 12.2722 77.6918 12.01 78.2659 11.62C78.8401 11.2166 79.3375 10.6989 79.7584 10.0669C80.1793 9.43486 80.3705 8.94529 80.5363 8.12502H83.4066C83.2023 8.98564 82.9731 9.54916 82.5138 10.2888C82.0674 11.0284 81.5443 11.6738 80.9447 12.2251C80.345 12.7765 79.72 13.1866 79.0697 13.4556C79.5671 13.6035 80.0647 13.859 80.5621 14.222C81.0596 14.5716 81.525 15.002 81.9587 15.513C82.3926 16.0105 82.7625 16.5618 83.0686 17.167C83.3748 17.772 83.5789 18.4041 83.6811 19.063H80.8108C80.6834 18.4444 80.4727 17.8864 80.1793 17.3888C79.8858 16.8778 79.5416 16.4341 79.1459 16.0576C78.7633 15.6676 78.3359 15.3516 77.864 15.1095C77.4048 14.8675 76.9329 14.7196 76.4481 14.6658V19.063H73.75Z" fill="#4B5563"/>
<path d="M84.457 4.12109H87.2486V4.3205C87.2486 5.86239 85.9988 7.11231 84.457 7.11231V4.12109Z" fill="#4B5563"/>
<path d="M87.2489 8.10938H84.457V19.0772H87.2489V8.10938Z" fill="#4B5563"/>
<path fill-rule="evenodd" clip-rule="evenodd" d="M89.4156 14.2913C89.4156 14.305 89.4156 14.3187 89.4156 14.3324V13.4936V14.2153C89.4156 16.897 91.5869 19.0716 94.2669 19.0772C94.2681 19.0772 94.2691 19.0772 94.27 19.0772C94.2725 19.0772 94.2749 19.0772 94.2774 19.0772C94.28 19.0772 94.2825 19.0772 94.285 19.0772C94.2862 19.0772 94.2871 19.0772 94.2881 19.0772C95.2591 19.0751 96.1631 18.7885 96.9213 18.2963L95.5731 16.0789C95.2057 16.3348 94.7592 16.4848 94.2774 16.4848C93.0243 16.4848 92.0081 15.4688 92.0081 14.2153V10.7018H96.1955V8.1094H92.0081V7.90999H92.0077V4.12109H89.4147V8.1094H88.0195V10.7018H89.4147L89.4156 14.2913Z" fill="#4B5563"/>
</svg>
