<svg width="101" height="25" viewBox="0 0 101 25" fill="none" xmlns="http://www.w3.org/2000/svg">
<g clip-path="url(#clip0_6813_51344)">
<path fill-rule="evenodd" clip-rule="evenodd" d="M9.22684 5.88477H16.0601C19.729 5.88477 21.1101 7.72474 20.8967 10.4279C20.5439 14.8907 17.8205 17.3597 14.2081 17.3597H12.3842C11.8885 17.3597 11.5552 17.6847 11.4211 18.5654L10.6468 23.6851C10.5956 24.0171 10.4192 24.2093 10.1546 24.2356H5.86135C5.45742 24.2356 5.31454 23.9298 5.42038 23.2675L8.03799 6.85455C8.14029 6.19755 8.50365 5.88477 9.22684 5.88477Z" fill="#4B5563"/>
<path fill-rule="evenodd" clip-rule="evenodd" d="M38.8939 5.58008C41.1993 5.58008 43.3266 6.81896 43.0355 9.90655C42.6828 13.576 40.6984 15.6064 37.5675 15.6152H34.8317C34.4384 15.6152 34.2479 15.9332 34.1456 16.585L33.6164 19.9172C33.537 20.4204 33.276 20.6685 32.8914 20.6685H30.3462C29.9405 20.6685 29.7993 20.4117 29.8893 19.8368L31.9901 6.48172C32.0942 5.82471 32.3429 5.58008 32.7962 5.58008H38.8887H38.8939ZM34.7488 12.7303H36.8214C38.1178 12.6813 38.9786 11.7919 39.065 10.1879C39.118 9.19711 38.4424 8.48768 37.3682 8.49293L35.4173 8.50167L34.7488 12.7303ZM49.9553 19.6463C50.1881 19.4366 50.4245 19.3283 50.391 19.5869L50.3081 20.2055C50.2657 20.5287 50.3945 20.7 50.6979 20.7H52.9592C53.3402 20.7 53.5254 20.548 53.6189 19.9644L55.0123 11.3009C55.0829 10.8658 54.9753 10.6527 54.6419 10.6527H52.1548C51.9308 10.6527 51.8215 10.7767 51.7633 11.1157L51.6715 11.6487C51.6239 11.9265 51.4951 11.9754 51.3752 11.6958C50.9536 10.7068 49.8777 10.263 48.3766 10.298C44.8894 10.3696 42.5381 12.9924 42.2859 16.3543C42.0919 18.9544 43.9722 20.997 46.4522 20.997C48.2514 20.997 49.0557 20.4728 49.9623 19.6516L49.9553 19.6463ZM48.0609 18.3131C46.5598 18.3131 45.5138 17.1266 45.7308 15.6728C45.9477 14.219 47.3518 13.0326 48.8528 13.0326C50.3539 13.0326 51.3999 14.219 51.1829 15.6728C50.966 17.1266 49.5637 18.3131 48.0609 18.3131ZM59.4379 10.6247H57.1449C56.6722 10.6247 56.4799 10.9742 56.6298 11.404L59.4767 19.6621L56.6845 23.5919C56.4499 23.9204 56.6316 24.2192 56.9614 24.2192H59.5385C59.6887 24.2364 59.8407 24.2104 59.9764 24.1444C60.1121 24.0785 60.2258 23.9752 60.304 23.847L69.0599 11.4058C69.3298 11.0231 69.2028 10.6212 68.7601 10.6212H66.3206C65.9026 10.6212 65.735 10.7855 65.4951 11.1297L61.8439 16.3718L60.2123 11.1175C60.117 10.7994 59.8789 10.6247 59.4397 10.6247H59.4379Z" fill="#4B5563"/>
<path fill-rule="evenodd" clip-rule="evenodd" d="M78.1656 5.57967C80.471 5.57967 82.5983 6.81855 82.3072 9.90614C81.9544 13.5756 79.9701 15.606 76.8392 15.6148H74.1052C73.7118 15.6148 73.5213 15.9328 73.419 16.5845L72.8898 19.9168C72.8105 20.42 72.5494 20.6681 72.1649 20.6681H69.6196C69.2139 20.6681 69.0728 20.4113 69.1627 19.8364L71.2671 6.47781C71.3711 5.8208 71.6198 5.57617 72.0732 5.57617H78.1656V5.57967ZM74.0205 12.7299H76.093C77.3895 12.6809 78.2503 11.7915 78.3367 10.1875C78.3896 9.19671 77.7141 8.48728 76.6399 8.49252L74.689 8.50126L74.0205 12.7299ZM89.2269 19.6459C89.4598 19.4362 89.6961 19.3279 89.6626 19.5865L89.5797 20.2051C89.5374 20.5283 89.6661 20.6996 89.9695 20.6996H92.2308C92.6118 20.6996 92.7971 20.5476 92.8905 19.9639L94.284 11.3005C94.3546 10.8654 94.247 10.6523 93.9136 10.6523H91.43C91.206 10.6523 91.0967 10.7763 91.0385 11.1153L90.9467 11.6483C90.8991 11.9261 90.7703 11.975 90.6504 11.6954C90.2288 10.7064 89.1529 10.2626 87.6518 10.2975C84.1646 10.3692 81.8133 12.992 81.5611 16.3539C81.3671 18.954 83.2474 20.9966 85.7274 20.9966C87.5266 20.9966 88.3309 20.4724 89.2375 19.6512L89.2269 19.6459ZM87.3343 18.3127C85.8332 18.3127 84.7872 17.1262 85.0042 15.6724C85.2212 14.2186 86.6252 13.0322 88.1263 13.0322C89.6274 13.0322 90.6733 14.2186 90.4564 15.6724C90.2394 17.1262 88.8354 18.3127 87.3343 18.3127ZM97.7641 20.7136H95.1536C95.1082 20.7156 95.0629 20.7076 95.021 20.6903C94.979 20.6729 94.9414 20.6466 94.9109 20.6133C94.8804 20.5799 94.8578 20.5402 94.8445 20.4972C94.8313 20.4541 94.8278 20.4086 94.8343 20.3641L97.1274 5.97283C97.1493 5.87461 97.2041 5.78662 97.2829 5.72317C97.3616 5.65972 97.4598 5.62454 97.5613 5.62335H100.172C100.217 5.62134 100.263 5.62929 100.305 5.64663C100.346 5.66396 100.384 5.69026 100.415 5.72365C100.445 5.75703 100.468 5.79668 100.481 5.83975C100.494 5.88283 100.498 5.92827 100.491 5.97283L98.1981 20.3641C98.1769 20.4629 98.1224 20.5517 98.0435 20.6159C97.9647 20.68 97.8662 20.7157 97.7641 20.7171V20.7136Z" fill="#4B5563"/>
<path fill-rule="evenodd" clip-rule="evenodd" d="M4.95175 0.236328H11.7921C13.7183 0.236328 16.0043 0.297486 17.5318 1.63422C18.5531 2.52712 19.0893 3.94772 18.9658 5.47841C18.546 10.6523 15.4222 13.5512 11.2312 13.5512H7.85864C7.28361 13.5512 6.90437 13.9286 6.74209 14.9491L5.80018 20.8901C5.73844 21.2745 5.57088 21.5017 5.27101 21.5297H1.05004C0.582606 21.5297 0.416799 21.1802 0.538508 20.4079L3.57239 1.36512C3.6941 0.599778 4.1192 0.236328 4.95175 0.236328Z" fill="#ADB2BD"/>
<path fill-rule="evenodd" clip-rule="evenodd" d="M6.83984 14.3472L8.034 6.8563C8.13806 6.1993 8.50143 5.88477 9.22462 5.88477H16.0579C17.1886 5.88477 18.104 6.0595 18.8202 6.38276C18.134 10.9888 15.1266 13.5469 11.1896 13.5469H7.82233C7.37077 13.5487 7.03916 13.7724 6.83984 14.3472Z" fill="#ADB2BD"/>
</g>
<defs>
<clipPath id="clip0_6813_51344">
<rect width="100" height="24" fill="white" transform="translate(0.5 0.236328)"/>
</clipPath>
</defs>
</svg>
