<svg width="110" height="25" viewBox="0 0 110 25" fill="none" xmlns="http://www.w3.org/2000/svg">
<path fill-rule="evenodd" clip-rule="evenodd" d="M12.1445 24.0957C18.7719 24.0957 24.1445 18.7231 24.1445 12.0957C24.1445 5.46829 18.7719 0.0957031 12.1445 0.0957031C5.51711 0.0957031 0.144531 5.46829 0.144531 12.0957C0.144531 18.7231 5.51711 24.0957 12.1445 24.0957ZM15.8347 15.6117C16.5285 15.1731 16.9445 14.4392 16.9445 13.6539C16.9446 12.5625 16.1478 11.6135 15.0176 11.3588L11.6316 10.5183C11.3124 10.4463 11.2359 10.0528 11.5075 9.87959L14.1455 8.19696C15.3734 7.41374 15.6927 5.84411 14.8586 4.69109C14.7543 4.54696 14.5454 4.50949 14.3919 4.60739L8.43255 8.62716C7.75198 9.06126 7.34453 9.78366 7.34453 10.5562C7.34453 11.6345 8.13178 12.5721 9.24837 12.8238L12.6896 13.6767C13.0095 13.7488 13.0853 14.1437 12.8124 14.3162L10.155 15.9962C8.92366 16.7746 8.59748 18.343 9.42648 19.4992C9.5301 19.6438 9.73888 19.6821 9.89281 19.5847L15.8347 15.6117Z" fill="#4B5563"/>
<path d="M36.1077 17.9123C34.988 17.9123 33.991 17.7291 33.1167 17.3626C32.2424 16.9961 31.5368 16.4768 31 15.8049L32.9787 14.1327C33.4388 14.6367 33.9603 15.0032 34.5432 15.2322C35.1261 15.446 35.7166 15.5529 36.3148 15.5529C36.7903 15.5529 37.1738 15.446 37.4652 15.2322C37.7566 15.0184 37.9023 14.7206 37.9023 14.3389C37.9023 14.0029 37.7643 13.7357 37.4882 13.5371C37.2121 13.3539 36.5525 13.1248 35.5095 12.8499C33.9603 12.4529 32.8636 11.9108 32.2194 11.2236C31.6519 10.6127 31.3681 9.85679 31.3681 8.95579C31.3681 8.23805 31.5829 7.61193 32.0123 7.07744C32.4418 6.52768 33.0093 6.10009 33.7149 5.79466C34.4205 5.48924 35.1874 5.33653 36.0157 5.33653C36.9667 5.33653 37.864 5.50451 38.7076 5.84048C39.5512 6.17644 40.2568 6.63458 40.8243 7.21488L39.1218 9.07032C38.6923 8.67328 38.1938 8.34495 37.6262 8.08534C37.0741 7.81045 36.5602 7.67302 36.0847 7.67302C34.9803 7.67302 34.4282 8.05479 34.4282 8.81835C34.4435 9.18486 34.6122 9.47501 34.9343 9.68881C35.2411 9.9026 35.939 10.1546 37.028 10.4447C38.4852 10.8265 39.5129 11.3305 40.1111 11.9566C40.6326 12.4911 40.8934 13.2012 40.8934 14.0869C40.8934 14.8199 40.6786 15.4766 40.2491 16.0569C39.835 16.6372 39.2675 17.0953 38.5466 17.4313C37.8256 17.752 37.0127 17.9123 36.1077 17.9123Z" fill="#4B5563"/>
<path d="M42.4436 21.6961V5.5885H45.1372L45.5267 7.05453C45.9255 6.56586 46.47 6.16117 47.1602 5.84048C47.8504 5.51978 48.579 5.35943 49.3459 5.35943C50.4043 5.35943 51.3476 5.62668 52.1759 6.16117C53.0042 6.69566 53.6561 7.43631 54.1316 8.38312C54.6071 9.32994 54.8448 10.4066 54.8448 11.613C54.8448 12.8194 54.6071 13.896 54.1316 14.8428C53.6561 15.7896 53.0042 16.5379 52.1759 17.0877C51.3476 17.6222 50.4043 17.8894 49.3459 17.8894C48.625 17.8894 47.9271 17.7443 47.2522 17.4542C46.5773 17.1488 46.0328 16.767 45.6187 16.3089V20.3285L42.4436 21.6961ZM48.6557 15.1864C49.5914 15.1864 50.3506 14.8581 50.9335 14.2014C51.5163 13.5295 51.8078 12.6667 51.8078 11.613C51.8078 10.5745 51.5163 9.72698 50.9335 9.07032C50.3506 8.39839 49.5914 8.06243 48.6557 8.06243C47.7201 8.06243 46.9608 8.39076 46.3779 9.04742C45.7951 9.70408 45.5036 10.5593 45.5036 11.613C45.5036 12.6667 45.7951 13.5295 46.3779 14.2014C46.9608 14.8581 47.7201 15.1864 48.6557 15.1864Z" fill="#4B5563"/>
<path d="M62.6321 17.9123C61.3283 17.9123 60.1856 17.6451 59.2039 17.1106C58.2222 16.5761 57.4553 15.8431 56.9031 14.9115C56.3663 13.98 56.0978 12.911 56.0978 11.7046C56.0978 10.4524 56.3586 9.35284 56.8801 8.40603C57.417 7.44395 58.1455 6.68802 59.0658 6.13826C60.0015 5.5885 61.0752 5.31362 62.2869 5.31362C63.376 5.31362 64.35 5.58087 65.2089 6.11536C66.0832 6.63458 66.7581 7.34468 67.2336 8.24568C67.7244 9.14668 67.9545 10.1775 67.9238 11.3381L67.9008 12.3231H59.1579C59.3266 13.1935 59.7407 13.8807 60.4003 14.3847C61.0752 14.8886 61.9265 15.1406 62.9542 15.1406C63.5063 15.1406 64.0049 15.0566 64.4497 14.8886C64.9098 14.7207 65.4007 14.4229 65.9222 13.9953L67.4407 16.1027C66.7811 16.683 66.0219 17.1335 65.1629 17.4542C64.3193 17.7596 63.4757 17.9123 62.6321 17.9123ZM62.3099 8.01662C60.5767 8.01662 59.5337 8.79544 59.1809 10.3531H64.9328V10.2615C64.8868 9.60482 64.6107 9.07032 64.1045 8.658C63.6137 8.23041 63.0155 8.01662 62.3099 8.01662Z" fill="#4B5563"/>
<path d="M75.1699 17.9123C74.0195 17.9123 72.9841 17.6374 72.0638 17.0877C71.1588 16.5379 70.4379 15.7896 69.9011 14.8428C69.3796 13.896 69.1188 12.8194 69.1188 11.613C69.1188 10.4218 69.3796 9.35284 69.9011 8.40603C70.4379 7.45922 71.1588 6.71093 72.0638 6.16117C72.9841 5.61141 74.0195 5.33653 75.1699 5.33653C76.2589 5.33653 77.2482 5.53505 78.1379 5.9321C79.0428 6.32915 79.7484 6.88655 80.2546 7.60429L78.529 9.6659C78.2069 9.22304 77.7621 8.84889 77.1945 8.54347C76.627 8.22278 76.0518 8.06243 75.469 8.06243C74.8247 8.06243 74.2496 8.22278 73.7434 8.54347C73.2525 8.84889 72.8614 9.26885 72.57 9.80334C72.2939 10.3378 72.1558 10.941 72.1558 11.613C72.1558 12.2849 72.3016 12.8881 72.593 13.4226C72.8844 13.9571 73.2832 14.3847 73.7894 14.7054C74.2956 15.0108 74.8631 15.1635 75.492 15.1635C76.0902 15.1635 76.6424 15.0337 77.1485 14.7741C77.6547 14.4992 78.1149 14.1174 78.529 13.6288L80.2546 15.6904C79.7331 16.3623 79.0122 16.9044 78.0919 17.3167C77.1715 17.7138 76.1975 17.9123 75.1699 17.9123Z" fill="#4B5563"/>
<path d="M87.2286 17.6833C84.1942 17.6833 81.7343 15.2234 81.7343 12.189V8.40603V5.5885V3.86366L84.8634 2.49609V5.5885H87.2286V8.40603H84.8634V12.839C84.8634 13.9435 85.7588 14.839 86.8634 14.839H87.2286V17.6833Z" fill="#4B5563"/>
<path d="M89.0646 17.6833V5.5885H91.7583L92.1477 7.58139C92.5465 6.92473 93.068 6.39024 93.7122 5.97792C94.3718 5.55032 95.062 5.33653 95.7829 5.33653C96.059 5.33653 96.3121 5.35944 96.5422 5.40525C96.7876 5.43579 96.9947 5.4816 97.1634 5.54269L96.3121 8.9787C96.1434 8.88707 95.9286 8.81072 95.6679 8.74963C95.4071 8.68855 95.1464 8.658 94.8856 8.658C94.134 8.658 93.4975 8.91761 92.976 9.43683C92.4698 9.94078 92.2167 10.5822 92.2167 11.361V17.6833H89.0646Z" fill="#4B5563"/>
<path d="M102.794 17.9123C101.781 17.9123 100.869 17.6374 100.056 17.0877C99.2429 16.5379 98.591 15.7896 98.1002 14.8428C97.6247 13.896 97.3869 12.8194 97.3869 11.613C97.3869 10.376 97.6247 9.29176 98.1002 8.36022C98.591 7.4134 99.2505 6.67275 100.079 6.13826C100.922 5.60377 101.873 5.33653 102.932 5.33653C103.791 5.33653 104.542 5.51215 105.187 5.86338C105.831 6.19935 106.345 6.64221 106.728 7.19197V5.5885H109.857V17.6833H107.048L106.705 16.0569C106.276 16.5914 105.716 17.0342 105.026 17.3855C104.351 17.7367 103.607 17.9123 102.794 17.9123ZM103.645 15.1864C104.581 15.1864 105.34 14.8581 105.923 14.2014C106.506 13.5448 106.797 12.682 106.797 11.613C106.797 10.544 106.506 9.68117 105.923 9.02451C105.34 8.36785 104.581 8.03952 103.645 8.03952C102.725 8.03952 101.973 8.36785 101.39 9.02451C100.823 9.68117 100.539 10.544 100.539 11.613C100.539 12.682 100.823 13.5448 101.39 14.2014C101.973 14.8581 102.725 15.1864 103.645 15.1864Z" fill="#4B5563"/>
</svg>
