<svg width="82" height="25" viewBox="0 0 82 25" fill="none" xmlns="http://www.w3.org/2000/svg">
<g clip-path="url(#clip0_6813_51271)">
<mask id="mask0_6813_51271" style="mask-type:luminance" maskUnits="userSpaceOnUse" x="0" y="0" width="82" height="25">
<path d="M81.7532 0.144531H0.855469V24.0462H81.7532V0.144531Z" fill="white"/>
</mask>
<g mask="url(#mask0_6813_51271)">
<path d="M33.2292 10.9991C32.7332 10.9991 32.2727 10.9071 31.8476 10.7229C31.4224 10.5317 31.0613 10.2732 30.7635 9.94743C30.466 9.6217 30.2464 9.24631 30.1048 8.82146L31.1675 8.37523C31.3588 8.86389 31.6386 9.23928 32.0069 9.50133C32.3755 9.76332 32.8006 9.89438 33.2823 9.89438C33.5658 9.89438 33.8137 9.85182 34.0263 9.76684C34.2388 9.67482 34.4018 9.54734 34.5152 9.38441C34.6356 9.22155 34.6959 9.03392 34.6959 8.82146C34.6959 8.53106 34.6142 8.30094 34.4515 8.1309C34.2884 7.961 34.0475 7.82642 33.7286 7.7273L32.2407 7.25989C31.6457 7.07571 31.1923 6.796 30.8805 6.42064C30.5688 6.03821 30.4129 5.59205 30.4129 5.08214C30.4129 4.63599 30.5227 4.24648 30.7424 3.91363C30.9619 3.5737 31.2631 3.30811 31.6457 3.1169C32.0355 2.92568 32.4783 2.83008 32.9742 2.83008C33.4488 2.83008 33.8811 2.91507 34.2708 3.08505C34.6604 3.24792 34.9934 3.47455 35.2698 3.76491C35.553 4.05527 35.7586 4.39166 35.8862 4.77408L34.8446 5.23087C34.6887 4.81304 34.4443 4.49081 34.1112 4.26418C33.7854 4.03755 33.4063 3.92425 32.9742 3.92425C32.7121 3.92425 32.4817 3.97028 32.2833 4.06235C32.0848 4.14734 31.9292 4.2748 31.8156 4.44477C31.7094 4.60765 31.6563 4.79886 31.6563 5.01841C31.6563 5.27336 31.7379 5.49998 31.9007 5.69828C32.0637 5.89657 32.3118 6.04529 32.6447 6.14446L34.0263 6.57999C34.6568 6.77121 35.1316 7.04736 35.4503 7.40861C35.7692 7.76269 35.9285 8.20533 35.9285 8.73648C35.9285 9.17554 35.8117 9.565 35.5779 9.90494C35.3511 10.2449 35.036 10.514 34.632 10.7123C34.2282 10.9035 33.7606 10.9991 33.2292 10.9991ZM39.5999 10.9354C38.9977 10.9354 38.5301 10.7654 38.1972 10.4255C37.8643 10.0856 37.6978 9.60756 37.6978 8.99136V6.20819H36.6882V5.12464H36.8475C37.1167 5.12464 37.3257 5.04675 37.4745 4.89093C37.6233 4.73513 37.6978 4.52269 37.6978 4.25356V3.8074H38.8987V5.12464H40.2058V6.20819H38.8987V8.93831C38.8987 9.13657 38.9304 9.30653 38.9943 9.44822C39.058 9.58273 39.1608 9.68896 39.3024 9.76684C39.4443 9.83768 39.6285 9.87313 39.8551 9.87313C39.9117 9.87313 39.9756 9.86955 40.0464 9.86244C40.1173 9.85541 40.1846 9.8483 40.2483 9.84127V10.8716C40.1492 10.8858 40.0393 10.9 39.9188 10.9141C39.7984 10.9283 39.6921 10.9354 39.5999 10.9354ZM42.9837 10.9991C42.594 10.9991 42.2505 10.9318 41.953 10.7973C41.6624 10.6556 41.4356 10.4644 41.2726 10.2237C41.1098 9.97578 41.0282 9.68544 41.0282 9.35261C41.0282 9.04096 41.0956 8.76124 41.2303 8.51333C41.372 8.26548 41.5881 8.05661 41.8785 7.88664C42.1689 7.71661 42.5338 7.59624 42.9732 7.5254L44.9712 7.19615V8.14153L43.2069 8.44966C42.8881 8.50629 42.6542 8.60894 42.5055 8.75766C42.3567 8.89934 42.2825 9.08345 42.2825 9.31012C42.2825 9.52961 42.3639 9.71021 42.5269 9.85182C42.6968 9.9864 42.9129 10.0537 43.175 10.0537C43.5011 10.0537 43.7843 9.98288 44.0253 9.84127C44.2732 9.69958 44.4644 9.51195 44.5991 9.27818C44.7337 9.03744 44.801 8.77187 44.801 8.48146V7.00494C44.801 6.72164 44.6948 6.49146 44.4824 6.31441C44.2768 6.13028 44.0004 6.03821 43.6532 6.03821C43.3346 6.03821 43.0545 6.1232 42.8138 6.29317C42.58 6.45605 42.4064 6.66852 42.293 6.93058L41.294 6.43128C41.4002 6.148 41.5738 5.90011 41.8148 5.68766C42.0555 5.46811 42.3356 5.29815 42.6542 5.17775C42.9803 5.05737 43.3238 4.99718 43.6852 4.99718C44.1386 4.99718 44.5389 5.08214 44.8861 5.25212C45.2404 5.42208 45.5131 5.65932 45.7044 5.96386C45.9028 6.2613 46.0019 6.60831 46.0019 7.00494V10.8716H44.8542V9.83064L45.0986 9.86244C44.964 10.0961 44.7905 10.298 44.578 10.468C44.3725 10.638 44.1352 10.769 43.866 10.861C43.6036 10.9531 43.3097 10.9991 42.9837 10.9991ZM47.2998 10.8716V5.12464H48.4476V6.28254L48.3414 6.11258C48.469 5.73723 48.6743 5.46811 48.9578 5.30523C49.2411 5.13526 49.5814 5.05029 49.978 5.05029H50.3288V6.14446H49.8292C49.4324 6.14446 49.1101 6.26838 48.8622 6.51624C48.6212 6.75703 48.5008 7.10406 48.5008 7.55726V10.8716H47.2998ZM53.6347 10.9354C53.0325 10.9354 52.5649 10.7654 52.2319 10.4255C51.8988 10.0856 51.7323 9.60756 51.7323 8.99136V6.20819H50.7227V5.12464H50.8821C51.1513 5.12464 51.3603 5.04675 51.509 4.89093C51.658 4.73513 51.7323 4.52269 51.7323 4.25356V3.8074H52.9332V5.12464H54.2405V6.20819H52.9332V8.93831C52.9332 9.13657 52.9652 9.30653 53.0289 9.44822C53.0928 9.58273 53.1953 9.68896 53.3372 9.76684C53.4788 9.83768 53.663 9.87313 53.8897 9.87313C53.9465 9.87313 54.0102 9.86955 54.081 9.86244C54.1518 9.85541 54.2192 9.8483 54.2829 9.84127V10.8716C54.1838 10.8858 54.0739 10.9 53.9536 10.9141C53.8331 10.9283 53.7267 10.9354 53.6347 10.9354ZM57.9442 10.9991C57.3703 10.9991 56.8603 10.8681 56.4138 10.6061C55.9747 10.337 55.6309 9.97578 55.383 9.52251C55.135 9.06221 55.011 8.54878 55.011 7.98225C55.011 7.40151 55.135 6.88802 55.383 6.4419C55.6381 5.99572 55.9781 5.64517 56.4032 5.39022C56.8284 5.12817 57.31 4.99718 57.8486 4.99718C58.2808 4.99718 58.6668 5.07153 59.0071 5.22024C59.3472 5.36896 59.6341 5.57436 59.8679 5.83638C60.1016 6.09132 60.2788 6.38524 60.3993 6.7181C60.5267 7.05095 60.5906 7.40503 60.5906 7.78041C60.5906 7.87243 60.5869 7.96804 60.5798 8.06723C60.5729 8.16636 60.5587 8.25845 60.5375 8.34343H55.9569V7.38736H59.8572L59.2833 7.82291C59.3543 7.47587 59.3295 7.1678 59.209 6.89864C59.0956 6.62249 58.9184 6.40648 58.6776 6.25068C58.4438 6.08778 58.1674 6.00635 57.8486 6.00635C57.5299 6.00635 57.2464 6.08778 56.9985 6.25068C56.7504 6.40648 56.5591 6.63311 56.4246 6.93058C56.2898 7.22092 56.2368 7.57499 56.265 7.99281C56.2296 8.38234 56.2827 8.72227 56.4246 9.01268C56.5733 9.30301 56.7787 9.52961 57.0408 9.69254C57.31 9.85541 57.6147 9.93687 57.955 9.93687C58.3022 9.93687 58.596 9.85893 58.837 9.70317C59.0851 9.54734 59.2798 9.34551 59.4214 9.09759L60.3993 9.57563C60.2859 9.84478 60.1087 10.0891 59.8679 10.3087C59.6341 10.5211 59.3506 10.6911 59.0177 10.8185C58.6916 10.9389 58.3339 10.9991 57.9442 10.9991ZM61.6563 10.8716V5.12464H62.8041V6.28254L62.6979 6.11258C62.8252 5.73723 63.0308 5.46811 63.3143 5.30523C63.5976 5.13526 63.9376 5.05029 64.3345 5.05029H64.6851V6.14446H64.1857C63.7888 6.14446 63.4665 6.26838 63.2186 6.51624C62.9776 6.75703 62.8572 7.10406 62.8572 7.55726V10.8716H61.6563ZM31.8582 21.6734V14.8747H29.7539V13.7593H35.1741V14.8747H33.1016V21.6734H31.8582ZM37.8408 21.8008C37.2669 21.8008 36.7567 21.6698 36.3104 21.4078C35.871 21.1386 35.5273 20.7775 35.2794 20.3243C35.0313 19.864 34.9074 19.3505 34.9074 18.7839C34.9074 18.2032 35.0313 17.6898 35.2794 17.2436C35.5345 16.7974 35.8745 16.4469 36.2996 16.1919C36.7248 15.9299 37.2066 15.7989 37.7452 15.7989C38.1772 15.7989 38.5635 15.8732 38.9035 16.022C39.2435 16.1707 39.5305 16.376 39.7643 16.6381C39.9981 16.893 40.1752 17.187 40.2957 17.5198C40.4233 17.8526 40.487 18.2068 40.487 18.5821C40.487 18.6742 40.4833 18.7698 40.4764 18.8689C40.4693 18.968 40.455 19.0601 40.4339 19.1451H35.8533V18.189H39.7538L39.1799 18.6246C39.2507 18.2775 39.2259 17.9695 39.1054 17.7004C38.992 17.4242 38.815 17.2081 38.574 17.0524C38.3402 16.8895 38.0638 16.8081 37.7452 16.8081C37.4262 16.8081 37.1428 16.8895 36.8949 17.0524C36.6468 17.2081 36.4555 17.4348 36.321 17.7323C36.1862 18.0226 36.1331 18.3767 36.1614 18.7946C36.126 19.184 36.1791 19.524 36.321 19.8144C36.4697 20.1047 36.6751 20.3313 36.9374 20.4942C37.2066 20.6571 37.5113 20.7386 37.8514 20.7386C38.1986 20.7386 38.4924 20.6606 38.7334 20.5049C38.9815 20.349 39.1762 20.1472 39.3178 19.8993L40.2957 20.3774C40.1823 20.6465 40.0051 20.8908 39.7643 21.1104C39.5305 21.3228 39.247 21.4928 38.9141 21.6203C38.588 21.7406 38.2303 21.8008 37.8408 21.8008ZM41.5527 21.6734V15.9264H42.7004V17.1692L42.5517 16.978C42.6721 16.5885 42.8918 16.2946 43.2107 16.0963C43.5294 15.898 43.8942 15.7989 44.3053 15.7989C44.7659 15.7989 45.1731 15.9228 45.5274 16.1707C45.8888 16.4114 46.1295 16.7337 46.25 17.1374L45.91 17.1692C46.0801 16.7089 46.3385 16.3654 46.6857 16.1388C47.04 15.9122 47.444 15.7989 47.8974 15.7989C48.294 15.7989 48.652 15.8909 48.9707 16.0751C49.2968 16.2592 49.5552 16.5141 49.7465 16.8399C49.9378 17.1657 50.0334 17.5375 50.0334 17.9553V21.6734H48.8325V18.2847C48.8325 17.9943 48.7794 17.7499 48.6732 17.5517C48.5741 17.3463 48.4322 17.1905 48.2481 17.0843C48.071 16.9709 47.862 16.9143 47.621 16.9143C47.3801 16.9143 47.1676 16.9709 46.9835 17.0843C46.7991 17.1905 46.654 17.3463 46.5478 17.5517C46.4413 17.757 46.3882 18.0014 46.3882 18.2847V21.6734H45.1979V18.2847C45.1979 17.9943 45.1448 17.7499 45.0385 17.5517C44.9395 17.3463 44.7976 17.1905 44.6134 17.0843C44.4363 16.9709 44.2237 16.9143 43.9758 16.9143C43.7349 16.9143 43.5224 16.9709 43.338 17.0843C43.1539 17.1905 43.0088 17.3463 42.9023 17.5517C42.8032 17.757 42.7535 18.0014 42.7535 18.2847V21.6734H41.5527ZM51.2127 23.7978V15.9264H52.3605V17.1161L52.2223 16.8399C52.4348 16.5141 52.7182 16.2592 53.0723 16.0751C53.4266 15.8909 53.8306 15.7989 54.284 15.7989C54.8296 15.7989 55.3184 15.9299 55.7505 16.1919C56.1899 16.4539 56.5334 16.8116 56.7814 17.2648C57.0364 17.7181 57.164 18.228 57.164 18.7946C57.164 19.3611 57.0364 19.871 56.7814 20.3243C56.5334 20.7775 56.1933 21.1386 55.7613 21.4078C55.329 21.6698 54.8366 21.8008 54.284 21.8008C53.8375 21.8008 53.4303 21.7088 53.0617 21.5247C52.7005 21.3405 52.4205 21.075 52.2223 20.7279L52.4136 20.5049V23.7978H51.2127ZM54.167 20.6854C54.507 20.6854 54.8083 20.604 55.0703 20.4411C55.3324 20.2782 55.538 20.0552 55.6868 19.7719C55.8427 19.4815 55.9206 19.1557 55.9206 18.7946C55.9206 18.4334 55.8427 18.1112 55.6868 17.8279C55.538 17.5446 55.3324 17.3215 55.0703 17.1586C54.8083 16.9958 54.507 16.9143 54.167 16.9143C53.8341 16.9143 53.5328 16.9958 53.2636 17.1586C53.0015 17.3215 52.7925 17.5446 52.6366 17.8279C52.4878 18.1112 52.4136 18.4334 52.4136 18.7946C52.4136 19.1557 52.4878 19.4815 52.6366 19.7719C52.7925 20.0552 53.0015 20.2782 53.2636 20.4411C53.5328 20.604 53.8341 20.6854 54.167 20.6854ZM58.2261 21.6734V13.6318H59.4269V21.6734H58.2261ZM62.4463 21.8008C62.0566 21.8008 61.7131 21.7336 61.4155 21.599C61.1249 21.4574 60.8982 21.2662 60.7352 21.0254C60.5724 20.7775 60.4908 20.4871 60.4908 20.1543C60.4908 19.8426 60.5582 19.5629 60.6929 19.3151C60.8345 19.0672 61.0506 18.8583 61.341 18.6883C61.6317 18.5184 61.9966 18.398 62.4357 18.3271L64.4338 17.9978V18.9433L62.6696 19.2513C62.3506 19.308 62.1169 19.4107 61.9681 19.5594C61.8193 19.701 61.7451 19.8852 61.7451 20.1118C61.7451 20.3313 61.8265 20.5119 61.9894 20.6536C62.1593 20.7882 62.3755 20.8554 62.6376 20.8554C62.9636 20.8554 63.2469 20.7846 63.4879 20.6429C63.7359 20.5013 63.9273 20.3136 64.0617 20.0799C64.1965 19.8391 64.2636 19.5735 64.2636 19.2832V17.8066C64.2636 17.5233 64.1574 17.2932 63.9449 17.1161C63.7394 16.932 63.4631 16.8399 63.1159 16.8399C62.7972 16.8399 62.5171 16.9249 62.2764 17.0949C62.0426 17.2577 61.8689 17.4702 61.7556 17.7323L60.7566 17.233C60.8628 16.9497 61.0364 16.7018 61.2774 16.4894C61.5183 16.2698 61.7982 16.0998 62.1169 15.9795C62.4429 15.8591 62.7864 15.7989 63.1478 15.7989C63.6012 15.7989 64.0015 15.8839 64.3487 16.0538C64.703 16.2238 64.9757 16.461 65.167 16.7656C65.3654 17.063 65.4645 17.41 65.4645 17.8066V21.6734H64.3167V20.6323L64.5611 20.6642C64.4266 20.8979 64.2531 21.0997 64.0406 21.2697C63.8351 21.4397 63.5978 21.5707 63.3285 21.6628C63.0664 21.7548 62.7724 21.8008 62.4463 21.8008ZM69.1457 21.7371C68.5435 21.7371 68.0755 21.5671 67.7428 21.2272C67.4095 20.8873 67.2432 20.4092 67.2432 19.7931V17.0099H66.2336V15.9264H66.3929C66.6622 15.9264 66.8712 15.8485 67.0199 15.6927C67.1689 15.5368 67.2432 15.3244 67.2432 15.0553V14.6091H68.444V15.9264H69.7512V17.0099H68.444V19.74C68.444 19.9382 68.4758 20.1083 68.5396 20.2499C68.604 20.3845 68.7062 20.4907 68.8483 20.5686C68.9897 20.6394 69.1736 20.6748 69.4007 20.6748C69.4571 20.6748 69.5209 20.6713 69.5919 20.6642C69.6629 20.6571 69.73 20.6501 69.7937 20.6429V21.6734C69.6948 21.6875 69.5846 21.7017 69.4644 21.7159C69.3442 21.73 69.2374 21.7371 69.1457 21.7371ZM73.4553 21.8008C72.881 21.8008 72.3711 21.6698 71.925 21.4078C71.4854 21.1386 71.1415 20.7775 70.8939 20.3243C70.6456 19.864 70.5221 19.3505 70.5221 18.7839C70.5221 18.2032 70.6456 17.6898 70.8939 17.2436C71.1488 16.7974 71.4888 16.4469 71.9143 16.1919C72.3393 15.9299 72.8206 15.7989 73.3597 15.7989C73.7919 15.7989 74.1777 15.8732 74.5183 16.022C74.8582 16.1707 75.145 16.376 75.3787 16.6381C75.6125 16.893 75.7897 17.187 75.9099 17.5198C76.0374 17.8526 76.1018 18.2068 76.1018 18.5821C76.1018 18.6742 76.0978 18.7698 76.0905 18.8689C76.0838 18.968 76.0692 19.0601 76.0487 19.1451H71.4675V18.189H75.3681L74.7938 18.6246C74.8649 18.2775 74.8403 17.9695 74.7201 17.7004C74.6066 17.4242 74.4293 17.2081 74.1883 17.0524C73.9546 16.8895 73.6784 16.8081 73.3597 16.8081C73.041 16.8081 72.7575 16.8895 72.5092 17.0524C72.2616 17.2081 72.0697 17.4348 71.9356 17.7323C71.8008 18.0226 71.7477 18.3767 71.7762 18.7946C71.7404 19.184 71.7935 19.524 71.9356 19.8144C72.0843 20.1047 72.2895 20.3313 72.5517 20.4942C72.8206 20.6571 73.1254 20.7386 73.466 20.7386C73.8125 20.7386 74.1067 20.6606 74.3477 20.5049C74.596 20.349 74.7905 20.1472 74.9326 19.8993L75.9099 20.3774C75.797 20.6465 75.6198 20.8908 75.3787 21.1104C75.145 21.3228 74.8615 21.4928 74.5282 21.6203C74.2023 21.7406 73.8451 21.8008 73.4553 21.8008ZM79.2926 21.8008C78.7044 21.8008 78.1872 21.6556 77.741 21.3653C77.3015 21.075 76.9934 20.6854 76.8168 20.1968L77.741 19.7612C77.8971 20.087 78.1095 20.3455 78.3784 20.5367C78.6553 20.7279 78.9593 20.8235 79.2926 20.8235C79.5761 20.8235 79.8065 20.7598 79.9838 20.6323C80.1604 20.5049 80.2494 20.3313 80.2494 20.1118C80.2494 19.9702 80.2102 19.8568 80.1325 19.7719C80.0542 19.6798 79.9552 19.6054 79.8351 19.5488C79.7215 19.4922 79.6047 19.4497 79.4839 19.4213L78.5802 19.1664C78.0843 19.0247 77.7125 18.8123 77.4648 18.529C77.2238 18.2386 77.1037 17.9022 77.1037 17.5198C77.1037 17.1728 77.192 16.8718 77.3692 16.6168C77.5458 16.3548 77.7908 16.153 78.1022 16.0113C78.4143 15.8697 78.7648 15.7989 79.1545 15.7989C79.6791 15.7989 80.1465 15.9299 80.5574 16.1919C80.9684 16.4469 81.2586 16.8045 81.4285 17.2648L80.5043 17.7004C80.3908 17.4242 80.2102 17.2046 79.9619 17.0418C79.7215 16.8788 79.4487 16.7974 79.1439 16.7974C78.8817 16.7974 78.6725 16.8612 78.5165 16.9887C78.3611 17.109 78.2828 17.2684 78.2828 17.4667C78.2828 17.6012 78.3186 17.7145 78.389 17.8066C78.4601 17.8916 78.5524 17.9624 78.6659 18.0191C78.7788 18.0687 78.8963 18.1112 79.0164 18.1466L79.9513 18.4228C80.4266 18.5573 80.7911 18.7698 81.0461 19.0601C81.301 19.3434 81.4285 19.6834 81.4285 20.0799C81.4285 20.4199 81.3369 20.7208 81.1523 20.9829C80.9757 21.2378 80.7274 21.4397 80.4087 21.5884C80.09 21.73 79.7176 21.8008 79.2926 21.8008Z" fill="#4B5563"/>
<path fill-rule="evenodd" clip-rule="evenodd" d="M20.0667 2.10368H5.95471C4.33098 2.10368 3.01469 3.4194 3.01469 5.04242V19.1483C3.01469 20.7713 4.33098 22.087 5.95471 22.087H20.0667C21.6905 22.087 23.0068 20.7713 23.0068 19.1483V5.04242C23.0068 3.4194 21.6905 2.10368 20.0667 2.10368ZM5.95471 0.144531C3.2485 0.144531 1.05469 2.33739 1.05469 5.04242V19.1483C1.05469 21.8533 3.2485 24.0462 5.95471 24.0462H20.0667C22.7729 24.0462 24.9668 21.8533 24.9668 19.1483V5.04242C24.9668 2.33739 22.7729 0.144531 20.0667 0.144531H5.95471Z" fill="#4B5563"/>
<path fill-rule="evenodd" clip-rule="evenodd" d="M15.5045 7.66411C15.4586 7.62301 15.4101 7.58371 15.359 7.54613C14.9165 7.2204 14.3158 7.05761 13.5572 7.05761C13.0417 7.05761 12.6064 7.13051 12.2514 7.27637C11.8964 7.41733 11.6241 7.61418 11.4344 7.86694C11.2307 8.14566 10.8837 8.37147 10.5837 8.20064C10.3481 8.06652 10.1306 7.901 9.93746 7.70793C9.57714 7.34788 9.31296 6.90317 9.16915 6.41461C9.10581 6.19937 9.16185 5.96417 9.33135 5.81713C9.71052 5.48825 10.1538 5.21146 10.6611 4.98674C11.517 4.60755 12.4897 4.41797 13.5791 4.41797C14.6879 4.41797 15.6557 4.60755 16.4825 4.98674C17.3141 5.36589 17.9609 5.89334 18.4229 6.56904C18.5919 6.8162 18.731 7.07772 18.8402 7.35352C19.1638 8.17136 18.4168 8.91702 17.5369 8.91702C16.85 8.91702 16.3002 8.40347 15.7807 7.9184C15.6879 7.83169 15.596 7.74584 15.5045 7.66411ZM10.982 9.28172C11.1124 9.2308 11.252 9.30795 11.3249 9.42745C11.4514 9.6267 11.6241 9.79932 11.8429 9.94512C12.0617 10.0861 12.3146 10.2101 12.6016 10.3171C12.8885 10.4191 13.1949 10.5066 13.5207 10.5795L14.863 10.9004C15.5147 11.0462 16.1128 11.2407 16.6575 11.4837C17.2022 11.7268 17.674 12.0257 18.0728 12.3806C18.4715 12.7354 18.7804 13.1535 18.9992 13.6348C19.223 14.116 19.3372 14.6678 19.3421 15.29C19.3372 16.204 19.1038 16.9963 18.6418 17.6671C18.1847 18.3331 17.5232 18.8509 16.6575 19.2203C15.7967 19.5849 14.7584 19.7672 13.5426 19.7672C12.3365 19.7672 11.286 19.5825 10.3912 19.213C9.50119 18.8436 8.80572 18.2967 8.30484 17.5723C8.07366 17.2325 7.89367 16.8552 7.76493 16.4405C7.50533 15.6038 8.24535 14.8671 9.12168 14.8671H9.23528C9.99276 14.8671 10.5554 15.5167 11.0112 16.1213C11.269 16.4518 11.6118 16.7022 12.0399 16.8724C12.4727 17.0376 12.9614 17.1203 13.5061 17.1203C14.0411 17.1203 14.5055 17.0425 14.8995 16.887C15.2983 16.7313 15.6071 16.515 15.826 16.238C16.0448 15.9609 16.1542 15.6425 16.1542 15.2828C16.1542 14.9473 16.0545 14.6654 15.8551 14.4369C15.6606 14.2084 15.3736 14.014 14.9943 13.8535C14.6198 13.6931 14.1602 13.5473 13.6156 13.416L11.9887 13.0077C10.9217 12.7483 10.0447 12.3649 9.35811 11.8577C9.17247 11.7206 9.10395 11.4792 9.16915 11.2579C9.31296 10.7693 9.57707 10.3246 9.93732 9.96458C10.2353 9.66667 10.5912 9.43449 10.982 9.28172ZM9.04905 7.2218L8.90604 6.73629C8.89986 6.71522 8.88705 6.69669 8.86952 6.68352C8.85193 6.67033 8.83055 6.6632 8.80857 6.6632C8.78659 6.6632 8.76522 6.67033 8.74762 6.68352C8.73009 6.69669 8.71721 6.71522 8.7111 6.73629L8.56829 7.2218C8.47242 7.54752 8.29628 7.8439 8.05607 8.08392C7.81592 8.324 7.51928 8.5 7.19348 8.59581L6.70772 8.73869C6.61044 8.76757 6.61044 8.90514 6.70772 8.93355L7.19348 9.07643C7.51928 9.1723 7.81579 9.34831 8.056 9.58839C8.29615 9.8284 8.47222 10.1248 8.56816 10.4504L8.7111 10.9362C8.73972 11.0332 8.87742 11.0332 8.90604 10.9362L9.04905 10.4506C9.14492 10.125 9.32099 9.82854 9.56107 9.58846C9.80128 9.34838 10.0978 9.17237 10.4237 9.07643L10.9096 8.93355C11.0067 8.90494 11.0067 8.7673 10.9096 8.73895L10.4239 8.59601C10.098 8.50014 9.80142 8.32413 9.56121 8.08405C9.32099 7.84397 9.14492 7.54752 9.04905 7.2218ZM7.31615 10.0896L7.35903 10.2353C7.38782 10.3329 7.44063 10.4219 7.5127 10.4939C7.58474 10.5659 7.67371 10.6188 7.7715 10.6475L7.91724 10.6903C7.94632 10.6989 7.94632 10.7402 7.91724 10.7487L7.77144 10.7916C7.67371 10.8204 7.58474 10.8732 7.51264 10.9452C7.44063 11.0172 7.38779 11.1061 7.35903 11.2039L7.31615 11.3495C7.30755 11.3786 7.26625 11.3786 7.25765 11.3495L7.21478 11.2038C7.18599 11.1061 7.13317 11.0172 7.06111 10.9452C6.98908 10.8732 6.90012 10.8204 6.80238 10.7916L6.65666 10.7487C6.62745 10.7403 6.62745 10.699 6.65666 10.6903L6.80238 10.6474C6.90012 10.6187 6.9891 10.5659 7.06116 10.4939C7.13322 10.4218 7.18605 10.3329 7.21482 10.2353L7.25765 10.0896C7.25952 10.0832 7.26336 10.0777 7.26862 10.0737C7.27391 10.0698 7.2803 10.0676 7.2869 10.0676C7.2935 10.0676 7.29991 10.0698 7.30518 10.0737C7.31044 10.0777 7.31431 10.0832 7.31615 10.0896ZM7.03681 6.12705L6.97009 5.90047C6.96721 5.89063 6.96124 5.88198 6.95303 5.87583C6.94482 5.86969 6.93486 5.86636 6.92461 5.86636C6.91435 5.86636 6.90437 5.86969 6.89617 5.87583C6.88796 5.88198 6.88198 5.89063 6.87911 5.90047L6.8125 6.12705C6.76774 6.27903 6.68553 6.41736 6.57345 6.52938C6.46136 6.64139 6.32295 6.72351 6.1709 6.76823L5.94421 6.83492C5.8988 6.8484 5.8988 6.9126 5.94421 6.92588L6.1709 6.99254C6.32295 7.03729 6.46131 7.11942 6.5734 7.23142C6.68547 7.34343 6.76764 7.48179 6.81239 7.63377L6.87911 7.86044C6.89247 7.90572 6.95673 7.90572 6.97009 7.86044L7.03681 7.63384C7.08156 7.48186 7.16371 7.3435 7.2758 7.23149C7.38786 7.11942 7.52625 7.03729 7.67829 6.99254L7.90509 6.92588C7.95037 6.91254 7.95037 6.84827 7.90509 6.83499L7.67842 6.76832C7.52631 6.7236 7.38793 6.64147 7.27584 6.52943C7.16375 6.41738 7.08156 6.27903 7.03681 6.12705Z" fill="#4B5563"/>
</g>
</g>
<defs>
<clipPath id="clip0_6813_51271">
<rect width="81" height="23.9016" fill="white" transform="translate(0.855469 0.144531)"/>
</clipPath>
</defs>
</svg>
