<svg width="63" height="27" viewBox="0 0 63 27" fill="none" xmlns="http://www.w3.org/2000/svg">
<g clip-path="url(#clip0_6813_51350)">
<path fill-rule="evenodd" clip-rule="evenodd" d="M62.3454 13.6053C62.3454 9.22221 60.2257 5.76367 56.1744 5.76367C52.1061 5.76367 49.6445 9.22221 49.6445 13.5711C49.6445 18.7246 52.5505 21.3271 56.7215 21.3271C58.7556 21.3271 60.2941 20.8648 61.4565 20.2142V16.7899C60.2941 17.372 58.9608 17.7316 57.2685 17.7316C55.6103 17.7316 54.1403 17.1494 53.9522 15.1291H62.3112C62.3112 14.9065 62.3454 14.0162 62.3454 13.6053ZM53.9009 11.9788C53.9009 10.044 55.0804 9.23933 56.1573 9.23933C57.2001 9.23933 58.3112 10.044 58.3112 11.9788H53.9009Z" fill="#4B5563"/>
<path fill-rule="evenodd" clip-rule="evenodd" d="M43.0482 5.76367C41.373 5.76367 40.296 6.55126 39.6977 7.09915L39.4755 6.03761H35.7148V26.0012L39.9883 25.0938L40.0054 20.2484C40.6208 20.6936 41.5268 21.3271 43.0311 21.3271C46.0909 21.3271 48.8772 18.8616 48.8772 13.4341C48.8601 8.46886 46.0396 5.76367 43.0482 5.76367ZM42.0225 17.5604C41.014 17.5604 40.4157 17.2008 40.0054 16.7556L39.9883 10.4036C40.4328 9.90706 41.0482 9.56464 42.0225 9.56464C43.5781 9.56464 44.655 11.311 44.655 13.5539C44.655 15.8482 43.5952 17.5604 42.0225 17.5604Z" fill="#4B5563"/>
<path fill-rule="evenodd" clip-rule="evenodd" d="M29.8359 4.75373L34.1265 3.82917V0.353516L29.8359 1.26095V4.75373Z" fill="#4B5563"/>
<path d="M34.1265 6.05664H29.8359V21.0379H34.1265V6.05664Z" fill="#4B5563"/>
<path fill-rule="evenodd" clip-rule="evenodd" d="M25.2353 7.32092L24.9618 6.05393H21.2695V21.0352H25.543V10.8822C26.5516 9.56383 28.261 9.80353 28.7909 9.99187V6.05393C28.2439 5.84847 26.2439 5.4718 25.2353 7.32092Z" fill="#4B5563"/>
<path fill-rule="evenodd" clip-rule="evenodd" d="M16.688 2.33789L12.5171 3.22821L12.5 16.9425C12.5 19.4765 14.3974 21.3427 16.9274 21.3427C18.3291 21.3427 19.3547 21.0859 19.9188 20.7777V17.302C19.3718 17.5246 16.6709 18.3122 16.6709 15.7782V9.70012H19.9188V6.05325H16.6709L16.688 2.33789Z" fill="#4B5563"/>
<path fill-rule="evenodd" clip-rule="evenodd" d="M5.13338 10.4036C5.13338 9.73585 5.68039 9.47903 6.58637 9.47903C7.88552 9.47903 9.52654 9.87282 10.8257 10.5748V6.55126C9.40688 5.98625 8.00518 5.76367 6.58637 5.76367C3.11629 5.76367 0.808594 7.57855 0.808594 10.609C0.808594 15.3346 7.30432 14.5812 7.30432 16.6187C7.30432 17.4063 6.62056 17.6631 5.66329 17.6631C4.24449 17.6631 2.43253 17.081 0.996628 16.2934V20.3683C2.58637 21.0531 4.19321 21.3442 5.66329 21.3442C9.21885 21.3442 11.6633 19.5807 11.6633 16.5159C11.6462 11.4138 5.13338 12.3212 5.13338 10.4036Z" fill="#4B5563"/>
</g>
<defs>
<clipPath id="clip0_6813_51350">
<rect width="62" height="26" fill="white" transform="translate(0.5 0.236328)"/>
</clipPath>
</defs>
</svg>
