<svg width="128" height="25" viewBox="0 0 128 25" fill="none" xmlns="http://www.w3.org/2000/svg">
<g clip-path="url(#clip0_6813_51306)">
<path fill-rule="evenodd" clip-rule="evenodd" d="M11.8154 24.1518C18.3408 24.1518 23.6307 18.7929 23.6307 12.1823C23.6307 5.5718 18.3408 0.212891 11.8154 0.212891C5.28993 0.212891 0 5.5718 0 12.1823C0 18.7929 5.28993 24.1518 11.8154 24.1518ZM11.8663 6.19761C10.9175 6.19761 9.60462 6.74724 8.93377 7.42525L7.11176 9.26671H16.1934L19.2302 6.19761H11.8663ZM14.6817 16.9394C14.0108 17.6174 12.6979 18.1671 11.7492 18.1671H4.38535L7.42204 15.098H16.5037L14.6817 16.9394ZM17.6333 10.8013H5.5967L5.02815 11.3767C3.68187 12.6043 4.08115 13.5634 5.96656 13.5634H18.0357L18.6045 12.988C19.9377 11.7676 19.5187 10.8013 17.6333 10.8013Z" fill="#4B5563"/>
<path fill-rule="evenodd" clip-rule="evenodd" d="M90.4233 15.8465C89.4864 17.5262 87.792 19.1656 84.8816 19.1656C80.8749 19.1656 77.7852 16.3322 77.7852 12.1834C77.7852 8.01428 80.8749 5.20117 84.8816 5.20117C87.792 5.20117 89.4864 6.8 90.4233 8.50001L87.9913 9.71429C87.4331 8.62143 86.2371 7.7512 84.8816 7.7512C82.4498 7.7512 80.6954 9.63335 80.6954 12.1834C80.6954 14.7334 82.4498 16.6155 84.8816 16.6155C86.2371 16.6155 87.4331 15.7453 87.9913 14.6524L90.4233 15.8465ZM99.2478 5.4238L104.371 18.9227H101.161L100.324 16.6358H94.6231L93.7859 18.9227H90.5765L95.6996 5.4238H99.2478ZM95.4004 14.106H99.5467L97.4737 8.29762L95.4004 14.106ZM116.383 18.9227L113.373 13.7822C114.808 13.4381 116.303 12.1429 116.303 9.77502C116.303 7.26548 114.589 5.4238 111.818 5.4238H105.599V18.9227H108.429V14.1262H110.502L113.114 18.9227H116.383ZM111.419 11.5964H108.429V7.95357H111.419C112.536 7.95357 113.393 8.64167 113.393 9.75478C113.393 10.9084 112.536 11.5964 111.419 11.5964ZM124.133 7.95357V18.9227H121.283V7.95357H117.396V5.4238H128.001V7.95357H124.133ZM30.5573 15.577L29.5391 17.0689C30.8615 18.4667 32.6204 19.1656 34.8157 19.1656C36.4379 19.1656 37.6942 18.7892 38.5848 18.0366C39.484 17.275 39.9337 16.3117 39.9337 15.1469C39.9337 14.448 39.7838 13.8432 39.484 13.3325C39.1844 12.8218 38.7963 12.432 38.3203 12.1632C37.8531 11.8854 37.3285 11.6525 36.7466 11.4643C36.1734 11.2762 35.596 11.1193 35.0141 10.9939C34.4411 10.8595 33.9165 10.7206 33.4403 10.5773C32.9731 10.4249 32.5896 10.2189 32.2898 9.95901C31.99 9.69021 31.8402 9.36317 31.8402 8.97787C31.8402 8.37755 32.1047 7.88026 32.6336 7.48602C33.1626 7.08281 33.8635 6.88121 34.7364 6.88121C35.5651 6.88121 36.319 7.03802 36.9978 7.35162C37.6856 7.65627 38.2322 8.05947 38.6376 8.56124L39.5766 7.13657C38.3423 5.84631 36.7289 5.20119 34.7364 5.20119C33.2287 5.20119 32.0428 5.56854 31.1789 6.30327C30.3149 7.02906 29.8828 7.9385 29.8828 9.03164C29.8828 9.6947 30.0327 10.2681 30.3325 10.752C30.6323 11.2269 31.0202 11.5942 31.4962 11.8541C31.9724 12.1139 32.497 12.3335 33.0701 12.5126C33.6519 12.6918 34.2294 12.8487 34.8026 12.9831C35.3756 13.1175 35.9002 13.2653 36.3762 13.4266C36.8523 13.5879 37.2402 13.8163 37.54 14.112C37.8398 14.4077 37.9896 14.7706 37.9896 15.2007C37.9896 15.8817 37.712 16.4327 37.1565 16.8538C36.6099 17.275 35.8472 17.4854 34.8685 17.4854C34.0134 17.4854 33.1979 17.3018 32.422 16.9345C31.6462 16.5671 31.0246 16.1146 30.5573 15.577ZM42.1565 5.53719V14.9184C42.1565 17.7498 43.5451 19.1656 46.3224 19.1656C47.2394 19.1656 48.1078 18.955 48.9277 18.5338C49.7476 18.1127 50.4308 17.5885 50.9776 16.9614V18.8296H53.0142V5.53719H50.9776V15.3082C50.5808 15.8727 50.0298 16.3476 49.3244 16.7329C48.6191 17.1182 47.8874 17.3108 47.1291 17.3108C46.1682 17.3108 45.4363 17.0868 44.9338 16.6388C44.4312 16.1818 44.18 15.3978 44.18 14.2868V5.53719H42.1565ZM55.9908 18.8296V5.53719H58.0142V7.66074C58.5785 6.92601 59.2352 6.33912 59.9847 5.90007C60.7341 5.45207 61.5321 5.22807 62.3785 5.22807V7.35162C62.061 7.31578 61.8009 7.29786 61.5982 7.29786C60.9722 7.29786 60.2933 7.51738 59.5615 7.95642C58.8298 8.38651 58.314 8.87483 58.0142 9.42141V18.8296H55.9908ZM63.9003 8.66876C63.3537 9.72605 63.0803 10.8909 63.0803 12.1632C63.0803 14.233 63.7064 15.9175 64.9582 17.2167C66.2103 18.5159 67.8148 19.1656 69.7721 19.1656C71.8529 19.1656 73.5854 18.4757 74.9695 17.0958L74.0042 15.7517C73.4751 16.2983 72.8535 16.7194 72.1394 17.0151C71.4341 17.3108 70.698 17.4586 69.9308 17.4586C68.5731 17.4586 67.471 17.0196 66.6246 16.1415C65.7871 15.2634 65.3286 14.1703 65.2492 12.8621H75.8159V12.3379C75.8159 10.9939 75.5691 9.78876 75.0754 8.72251C74.5905 7.64731 73.8675 6.79161 72.9065 6.15544C71.9454 5.51927 70.8214 5.20119 69.534 5.20119C68.3086 5.20119 67.2021 5.51479 66.2147 6.14201C65.2272 6.76024 64.4558 7.6025 63.9003 8.66876ZM73.8058 11.3165H65.2228C65.2492 10.7968 65.3595 10.2861 65.5534 9.78429C65.7474 9.27356 66.0119 8.80316 66.347 8.37307C66.6908 7.93403 67.136 7.58011 67.6827 7.31129C68.2293 7.04249 68.8376 6.90809 69.5076 6.90809C70.2218 6.90809 70.8611 7.04698 71.4252 7.32474C71.9896 7.59354 72.4392 7.94746 72.7743 8.38651C73.1092 8.82555 73.3606 9.29597 73.5279 9.79772C73.7043 10.2995 73.7969 10.8057 73.8058 11.3165Z" fill="#4B5563"/>
</g>
<defs>
<clipPath id="clip0_6813_51306">
<rect width="128" height="24" fill="white" transform="translate(0 0.212891)"/>
</clipPath>
</defs>
</svg>
