<svg width="182" height="25" viewBox="0 0 182 25" fill="none" xmlns="http://www.w3.org/2000/svg">
<path d="M0 4.95468C0 3.2735 1.36334 1.91016 3.04452 1.91016H21.3116C22.9935 1.91016 24.3562 3.2735 24.3562 4.95468V17.1328C24.3562 18.8146 22.9935 20.1774 21.3116 20.1774H6.16272L1.95519 23.379C1.15327 23.9891 0 23.4173 0 22.4096V12.7517V12.7481V4.95468ZM7.17658 9.82347C6.88124 9.21944 6.15174 8.96855 5.54773 9.2639C4.9431 9.55925 4.69283 10.2887 4.98815 10.8927C6.28635 13.5494 9.01666 15.3834 12.178 15.3834C15.3395 15.3834 18.0699 13.5494 19.3681 10.8927C19.6633 10.288 19.4131 9.55925 18.8085 9.2639C18.2045 8.96855 17.475 9.21944 17.1796 9.82347C16.2742 11.6758 14.3738 12.9478 12.178 12.9478C9.98238 12.9478 8.082 11.6764 7.17658 9.82347Z" fill="#4B5563"/>
<path d="M30.4492 16.5767L31.5496 15.0531C32.4524 16.097 34.1736 16.9998 36.0357 16.9998C38.1237 16.9998 39.2523 16.0688 39.2523 14.7426C39.2523 13.2473 37.5876 12.7676 35.7536 12.3162C33.4399 11.7801 30.816 11.1594 30.816 8.3379C30.816 6.22174 32.65 4.41602 35.8947 4.41602C38.2082 4.41602 39.8447 5.29068 40.9451 6.39104L39.9576 7.85824C39.1394 6.87072 37.644 6.13715 35.8947 6.13715C34.0325 6.13715 32.8757 6.98355 32.8757 8.19679C32.8757 9.5229 34.4275 9.94613 36.205 10.3694C38.5751 10.9055 41.3119 11.5826 41.3119 14.6016C41.3119 16.887 39.478 18.721 35.9511 18.721C33.7222 18.721 31.8317 18.0438 30.4492 16.5767ZM52.6781 18.3824V16.4637C51.6342 17.6488 49.8566 18.721 47.8251 18.721C44.9755 18.721 43.4801 17.3384 43.4801 14.3759V4.75459H45.5962V13.7269C45.5962 16.1252 46.8094 16.8306 48.6434 16.8306C50.3081 16.8306 51.8881 15.8713 52.6781 14.7709V4.75459H54.7943V18.3824H52.6781ZM57.7504 18.3824V4.75459H59.8666V6.95537C60.9671 5.5164 62.5471 4.47244 64.4094 4.47244V6.645C64.1555 6.58858 63.9015 6.56035 63.5629 6.56035C62.2653 6.56035 60.4876 7.63252 59.8666 8.73287V18.3824H57.7504ZM65.0042 11.5544C65.0042 7.60429 67.8256 4.41602 71.7195 4.41602C75.8384 4.41602 78.2649 7.63252 78.2649 11.7237V12.2598H67.233C67.4022 14.8273 69.2084 16.9716 72.1421 16.9716C73.6943 16.9716 75.2743 16.3509 76.3463 15.2505L77.3621 16.633C76.0077 17.9873 74.1738 18.721 71.9451 18.721C67.9102 18.721 65.0042 15.8148 65.0042 11.5544ZM71.6911 6.16533C68.7851 6.16533 67.346 8.62008 67.233 10.7079H76.177C76.1492 8.67644 74.7948 6.16533 71.6911 6.16533Z" fill="#4B5563"/>
<path d="M84.0609 18.619H81.2383V5.3593H90.6217V7.84424H84.0609V10.6473H90.482V13.1322H84.0609V18.619ZM101.978 18.619H92.5949V5.3593H101.978V7.84424H95.4183V10.6473H101.839V13.1322H95.4183V16.134H101.978V18.619ZM113.568 18.619H104.185V5.3593H113.568V7.84424H107.008V10.6473H113.429V13.1322H107.008V16.134H113.568V18.619ZM121.004 18.619H115.775V5.3593H121.004C123.084 5.3593 124.774 5.96894 126.073 7.1882C127.385 8.40748 128.041 10.0112 128.041 11.9991C128.041 13.9871 127.391 15.5907 126.093 16.81C124.794 18.016 123.097 18.619 121.004 18.619ZM121.004 16.134C122.275 16.134 123.283 15.7365 124.025 14.9413C124.78 14.1461 125.158 13.1653 125.158 11.9991C125.158 10.7798 124.794 9.78581 124.065 9.01718C123.336 8.23522 122.316 7.84424 121.004 7.84424H118.599V16.134H121.004ZM137.241 18.619H130.044V5.3593H137.022C138.227 5.3593 139.162 5.69062 139.825 6.35327C140.501 7.00268 140.838 7.79785 140.838 8.73883C140.838 9.54729 140.621 10.2232 140.182 10.7665C139.746 11.3099 139.202 11.6479 138.552 11.7804C139.268 11.8865 139.871 12.2509 140.362 12.8738C140.852 13.4967 141.097 14.2189 141.097 15.0407C141.097 16.0744 140.759 16.9292 140.083 17.6051C139.407 18.2811 138.46 18.619 137.241 18.619ZM136.406 10.6672C136.883 10.6672 137.261 10.5346 137.539 10.2695C137.817 10.0045 137.956 9.65992 137.956 9.23582C137.956 8.81171 137.811 8.46719 137.519 8.20206C137.241 7.92377 136.87 7.7846 136.406 7.7846H132.867V10.6672H136.406ZM136.506 16.1738C137.036 16.1738 137.452 16.0413 137.757 15.7762C138.062 15.4979 138.215 15.1202 138.215 14.6431C138.215 14.2057 138.062 13.8413 137.757 13.5497C137.452 13.2448 137.036 13.0925 136.506 13.0925H132.867V16.1738H136.506ZM155.592 18.619H152.371L151.556 16.3726H145.871L145.035 18.619H141.815L146.943 5.3593H150.482L155.592 18.619ZM150.78 13.8877L148.713 8.18218L146.646 13.8877H150.78ZM162.557 18.8576C160.543 18.8576 158.86 18.2214 157.507 16.9491C156.17 15.6635 155.5 14.0136 155.5 11.9991C155.5 9.98465 156.17 8.34122 157.507 7.06896C158.86 5.7834 160.543 5.14062 162.557 5.14062C165.036 5.14062 166.884 6.22072 168.103 8.38098L165.678 9.57379C165.387 9.01718 164.956 8.55994 164.386 8.20206C163.83 7.83098 163.22 7.64548 162.557 7.64548C161.352 7.64548 160.357 8.05631 159.576 8.87796C158.793 9.69968 158.402 10.74 158.402 11.9991C158.402 13.2581 158.793 14.2985 159.576 15.1202C160.357 15.9419 161.352 16.3527 162.557 16.3527C163.22 16.3527 163.83 16.1738 164.386 15.816C164.956 15.4581 165.387 14.9943 165.678 14.4244L168.103 15.5973C166.845 17.7708 164.996 18.8576 162.557 18.8576ZM181.136 18.619H177.656L173.641 13.3112L172.607 14.5437V18.619H169.784V5.3593H172.607V11.2834L177.299 5.3593H180.777L175.509 11.5816L181.136 18.619Z" fill="#4B5563"/>
</svg>
