<svg width="122" height="25" viewBox="0 0 122 25" fill="none" xmlns="http://www.w3.org/2000/svg">
<g clip-path="url(#clip0_6813_51309)">
<path d="M23.3356 0.216797H1.04762C0.637311 0.216797 0.304688 0.54942 0.304688 0.959732V23.2478C0.304688 23.6581 0.637311 23.9907 1.04762 23.9907H23.3356C23.746 23.9907 24.0786 23.6581 24.0786 23.2478V0.959732C24.0786 0.54942 23.746 0.216797 23.3356 0.216797Z" fill="#4B5563"/>
<path d="M6.6453 11.7713C6.85207 11.9208 7.14563 11.8717 7.2809 11.6705C7.43042 11.4638 7.3813 11.1702 7.18014 11.0349L5.18904 9.6085C5.11829 9.55391 5.12444 9.48561 5.12751 9.45146C5.13063 9.41731 5.15667 9.35773 5.24234 9.3242L18.4907 5.94649C18.5676 5.93282 18.6129 5.96448 18.644 6.00171C18.675 6.03893 18.7061 6.07615 18.6713 6.15563L13.6517 18.8565C13.617 18.936 13.5543 18.9441 13.5257 18.9553C13.4916 18.9522 13.4233 18.946 13.3811 18.8802L11.8638 16.0992C11.816 16.0192 11.7769 15.9192 11.729 15.8392C11.1352 14.4912 10.9853 13.4965 12.0998 12.5166L14.9693 9.86122C15.1641 9.68611 15.1832 9.39869 15.0137 9.21814C14.8386 9.0233 14.5512 9.00415 14.3706 9.17366L11.3569 11.7713C9.83836 13.1069 10.0912 14.7683 11.052 16.5489L12.5693 19.3298C12.7631 19.6985 13.1573 19.9063 13.5788 19.8894C13.6899 19.8789 13.8097 19.8484 13.9096 19.8093C14.1808 19.7031 14.3931 19.4882 14.5146 19.2101L19.5342 6.50916C19.685 6.13733 19.6141 5.70405 19.3458 5.39754C19.0775 5.09098 18.6685 4.9713 18.275 5.05955L5.01241 8.44282C4.61021 8.55097 4.30612 8.86764 4.22061 9.27981C4.13506 9.69198 4.31147 10.1004 4.6542 10.3449L6.6453 11.7713Z" fill="white"/>
<path d="M6.01843 15.5952C6.05574 15.5806 6.10058 15.5487 6.13299 15.5217L8.13838 13.7616C8.30802 13.6091 8.32467 13.3589 8.17712 13.2017C8.02466 13.0321 7.77447 13.0154 7.61725 13.163L5.61187 14.9231C5.44227 15.0755 5.42557 15.3258 5.57313 15.4829C5.68613 15.6251 5.85689 15.6585 6.01843 15.5952Z" fill="white"/>
<path d="M5.76351 18.41C5.80082 18.3956 5.84579 18.3638 5.87825 18.3368L9.28641 15.3522C9.4565 15.2002 9.47386 14.9501 9.32671 14.7924C9.17474 14.6224 8.9246 14.605 8.76702 14.7521L5.35881 17.7368C5.18877 17.8888 5.1714 18.1389 5.31852 18.2965C5.42627 18.4265 5.61421 18.468 5.76351 18.41Z" fill="white"/>
<path fill-rule="evenodd" clip-rule="evenodd" d="M30.96 15.539L29.9453 17.0284C31.2632 18.424 33.0161 19.1218 35.2039 19.1218C36.8205 19.1218 38.0725 18.746 38.96 17.9946C39.8562 17.2342 40.3042 16.2725 40.3042 15.1096C40.3042 14.4118 40.1549 13.8079 39.8562 13.298C39.5575 12.7881 39.1708 12.399 38.6964 12.1306C38.2308 11.8533 37.708 11.6207 37.1281 11.4328C36.5569 11.245 35.9814 11.0884 35.4016 10.9632C34.8305 10.829 34.3077 10.6903 33.8331 10.5472C33.3675 10.3951 32.9854 10.1893 32.6866 9.9299C32.3879 9.66154 32.2385 9.33503 32.2385 8.95033C32.2385 8.35098 32.5021 7.85447 33.0292 7.46087C33.5564 7.05831 34.2549 6.85701 35.1249 6.85701C35.9507 6.85701 36.702 7.01361 37.3785 7.32671C38.0638 7.63086 38.6086 8.03342 39.0127 8.53438L39.9484 7.11201C38.7183 5.82379 37.1105 5.17969 35.1249 5.17969C33.6223 5.17969 32.4405 5.54644 31.5795 6.28C30.7185 7.00466 30.2879 7.91262 30.2879 9.00403C30.2879 9.66604 30.4372 10.2385 30.736 10.7216C31.0348 11.1958 31.4214 11.5625 31.8958 11.822C32.3704 12.0814 32.8931 12.3006 33.4642 12.4795C34.0441 12.6584 34.6196 12.815 35.1908 12.9491C35.7618 13.0833 36.2846 13.2309 36.759 13.3919C37.2334 13.553 37.62 13.7811 37.9188 14.0763C38.2176 14.3715 38.3669 14.7338 38.3669 15.1632C38.3669 15.8431 38.0902 16.3933 37.5366 16.8137C36.9919 17.2342 36.2318 17.4443 35.2565 17.4443C34.4043 17.4443 33.5916 17.261 32.8184 16.8942C32.0452 16.5275 31.4258 16.0757 30.96 15.539ZM42.5195 5.51514V14.8814C42.5195 17.7082 43.9033 19.1218 46.671 19.1218C47.5851 19.1218 48.4502 18.9115 49.2673 18.491C50.0843 18.0706 50.7655 17.5472 51.3101 16.9211V18.7863H53.34V5.51514H51.3101V15.2706C50.9147 15.8342 50.3657 16.3083 49.6627 16.693C48.96 17.0776 48.2307 17.27 47.4751 17.27C46.5174 17.27 45.788 17.0463 45.2871 16.599C44.7862 16.1428 44.536 15.36 44.536 14.2507V5.51514H42.5195ZM56.3063 18.7863V5.51514H58.3229V7.63532C58.8852 6.90176 59.5397 6.3158 60.2864 5.87745C61.0331 5.43019 61.8284 5.20654 62.6721 5.20654V7.32671C62.3555 7.29091 62.0964 7.27301 61.8943 7.27301C61.2705 7.27301 60.5941 7.49217 59.8648 7.93052C59.1355 8.35992 58.6216 8.84748 58.3229 9.39318V18.7863H56.3063ZM64.1887 8.64173C63.6441 9.69734 63.3716 10.8603 63.3716 12.1306C63.3716 14.1971 63.9954 15.8789 65.243 17.176C66.4906 18.4731 68.0895 19.1218 70.0402 19.1218C72.1138 19.1218 73.8405 18.433 75.2199 17.0553L74.2577 15.7134C73.7305 16.2591 73.1111 16.6795 72.3996 16.9747C71.6966 17.27 70.9628 17.4176 70.1983 17.4176C68.8456 17.4176 67.7471 16.9792 66.9034 16.1025C66.069 15.2259 65.6121 14.1344 65.5329 12.8284H76.0632V12.305C76.0632 10.9632 75.8174 9.75994 75.3254 8.69538C74.8423 7.62191 74.1214 6.76756 73.1641 6.1324C72.2059 5.49724 71.0861 5.17969 69.8029 5.17969C68.5816 5.17969 67.4791 5.49279 66.4951 6.119C65.5111 6.73626 64.7421 7.57717 64.1887 8.64173ZM74.06 11.2852H65.5066C65.5329 10.7664 65.6429 10.2564 65.8361 9.75549C66.0294 9.24558 66.2929 8.77593 66.6269 8.34652C66.9693 7.90817 67.4132 7.55481 67.9582 7.28641C68.5027 7.01806 69.1092 6.88386 69.7766 6.88386C70.4886 6.88386 71.1253 7.02256 71.6877 7.29986C72.25 7.56822 72.6984 7.92157 73.0323 8.35992C73.3658 8.79828 73.6165 9.26793 73.783 9.76889C73.9589 10.2698 74.0511 10.7753 74.06 11.2852Z" fill="#4B5563"/>
<path d="M89.516 18.782V9.07053L85.7126 18.782H84.4579L80.6545 9.07053V18.782H77.7812V5.28711H81.8077L85.0852 13.7037L88.3627 5.28711H92.4092V18.782H89.516Z" fill="#4B5563"/>
<path d="M104.538 18.782L103.688 16.4553H97.6583L96.8088 18.782H93.6523L98.8725 5.28711H102.474L107.673 18.782H104.538ZM100.673 7.77569L98.4273 13.9667H102.899L100.673 7.77569Z" fill="#4B5563"/>
<path d="M108.922 18.782V5.28711H111.795V18.782H108.922Z" fill="#4B5563"/>
<path d="M113.066 18.782V5.28711H115.94V16.253H121.645V18.782H113.066Z" fill="#4B5563"/>
</g>
<defs>
<clipPath id="clip0_6813_51309">
<rect width="122" height="24.0438" fill="white" transform="translate(0 0.191406)"/>
</clipPath>
</defs>
</svg>
