<svg width="142" height="25" viewBox="0 0 142 25" fill="none" xmlns="http://www.w3.org/2000/svg">
<path fill-rule="evenodd" clip-rule="evenodd" d="M29 16.816L29.9925 15.3574C30.448 15.8831 31.0539 16.3254 31.8101 16.6846C32.5664 17.0438 33.3613 17.2234 34.1949 17.2234C35.1488 17.2234 35.8922 17.0175 36.4249 16.6057C36.9664 16.194 37.2371 15.6553 37.2371 14.9895C37.2371 14.569 37.091 14.2142 36.7988 13.9251C36.5066 13.636 36.1285 13.4126 35.6644 13.2549C35.2003 13.0972 34.689 12.9527 34.1305 12.8213C33.5718 12.6899 33.009 12.5365 32.4418 12.3613C31.8832 12.1861 31.3719 11.9715 30.9078 11.7175C30.4437 11.4634 30.0656 11.1042 29.7734 10.6399C29.4812 10.1669 29.3352 9.60624 29.3352 8.95797C29.3352 7.88916 29.7562 7.00001 30.5984 6.29042C31.4406 5.57206 32.5965 5.21289 34.066 5.21289C36.0082 5.21289 37.5808 5.84364 38.7839 7.10514L37.8687 8.49807C37.4734 8.00744 36.9406 7.61324 36.2703 7.31538C35.6085 7.00877 34.8738 6.85546 34.066 6.85546C33.2152 6.85546 32.532 7.05257 32.0164 7.44679C31.5008 7.83225 31.2429 8.31841 31.2429 8.90538C31.2429 9.28211 31.389 9.60185 31.6813 9.86469C31.9734 10.1187 32.3472 10.3202 32.8027 10.4691C33.2668 10.6093 33.7781 10.7451 34.3367 10.8765C34.9039 10.9991 35.4667 11.1524 36.0253 11.3364C36.5925 11.5204 37.1038 11.7481 37.5593 12.0197C38.0234 12.2825 38.4015 12.6636 38.6937 13.1629C38.9859 13.6623 39.132 14.2536 39.132 14.9369C39.132 16.0758 38.6937 17.0175 37.8171 17.7621C36.9492 18.498 35.7246 18.866 34.1433 18.866C32.0035 18.866 30.2891 18.1827 29 16.816ZM41.2986 14.7135V5.54141H43.2709V14.0959C43.2709 15.1822 43.5158 15.9488 44.0057 16.3955C44.4955 16.8335 45.2088 17.0525 46.1455 17.0525C46.8845 17.0525 47.5978 16.8642 48.2853 16.4875C48.9728 16.1108 49.5099 15.6465 49.8966 15.0946V5.54141H51.8818V18.5374H49.8966V16.7109C49.3638 17.3242 48.6978 17.8366 47.8986 18.2484C47.0993 18.66 46.2529 18.866 45.3591 18.866C42.6521 18.866 41.2986 17.4818 41.2986 14.7135ZM54.7831 18.5374H56.7554V9.33902C57.0476 8.80465 57.5503 8.32719 58.2636 7.90671C58.9769 7.47745 59.6386 7.26282 60.2488 7.26282C60.4464 7.26282 60.6999 7.28034 61.0093 7.31538V5.23917C60.1843 5.23917 59.4066 5.45818 58.6761 5.8962C57.9456 6.32546 57.3054 6.89927 56.7554 7.61762V5.54141H54.7831V18.5374ZM61.6935 12.0197C61.6935 10.7757 61.9599 9.63689 62.4927 8.60319C63.0342 7.56067 63.7861 6.7372 64.7486 6.13273C65.7111 5.5195 66.7896 5.21289 67.9841 5.21289C69.2388 5.21289 70.3345 5.52389 71.2712 6.14587C72.2077 6.76786 72.9127 7.60447 73.3855 8.65571C73.8663 9.69819 74.1071 10.8764 74.1071 12.1905V12.703H63.8076C63.8849 13.982 64.3318 15.0508 65.1482 15.9093C65.9732 16.7678 67.0474 17.1971 68.3708 17.1971C69.1185 17.1971 69.8361 17.0525 70.5236 16.7634C71.2197 16.4744 71.8255 16.0627 72.3413 15.5282L73.2821 16.8423C71.9329 18.1914 70.2443 18.866 68.2161 18.866C66.3083 18.866 64.7443 18.2308 63.524 16.9606C62.3036 15.6903 61.6935 14.0434 61.6935 12.0197ZM63.7818 11.1919H72.148C72.1394 10.6925 72.0488 10.1975 71.8771 9.70697C71.7138 9.21642 71.4689 8.75644 71.1423 8.32719C70.8158 7.89794 70.3774 7.55192 69.8275 7.2891C69.2775 7.01753 68.6544 6.88175 67.9583 6.88175C67.3052 6.88175 66.7123 7.01315 66.1795 7.27596C65.6466 7.53877 65.2126 7.88484 64.8775 8.31409C64.5509 8.73457 64.2931 9.19447 64.104 9.6938C63.915 10.1844 63.8076 10.6838 63.7818 11.1919Z" fill="#4B5563"/>
<path d="M78.8791 18.9755H76.1199V5.78066H85.2914V8.25345H78.8791V11.023H85.1554V13.4958H78.8791V18.9755Z" fill="#4B5563"/>
<path d="M93.3803 19.2129C89.4553 19.2129 86.5989 16.3642 86.5989 12.388C86.5989 8.41171 89.4553 5.56305 93.3803 5.56305C97.286 5.56305 100.142 8.41171 100.142 12.388C100.142 16.3642 97.286 19.2129 93.3803 19.2129ZM93.3803 16.7203C95.7704 16.7203 97.3054 14.841 97.3054 12.388C97.3054 9.91517 95.7704 8.05563 93.3803 8.05563C90.9709 8.05563 89.4358 9.91517 89.4358 12.388C89.4358 14.841 90.9709 16.7203 93.3803 16.7203Z" fill="#4B5563"/>
<path d="M112.591 18.9755H109.404L106.859 14.2871H104.838V18.9755H102.079V5.78066H108.141C110.842 5.78066 112.513 7.58085 112.513 10.0339C112.513 12.3484 111.056 13.6145 109.657 13.9508L112.591 18.9755ZM107.753 11.8143C108.841 11.8143 109.676 11.1417 109.676 10.0141C109.676 8.92605 108.841 8.25345 107.753 8.25345H104.838V11.8143H107.753Z" fill="#4B5563"/>
<path d="M128.613 18.9755H125.835V9.46018L122.182 18.9755H120.977L117.324 9.46018V18.9755H114.565V5.78066H118.431L121.579 14.0299L124.727 5.78066H128.613V18.9755Z" fill="#4B5563"/>
<path d="M135.812 19.2129C133.305 19.2129 131.518 18.3622 130.293 17.116L131.809 14.9201C132.722 15.8895 134.141 16.7203 135.928 16.7203C137.464 16.7203 138.183 16.0279 138.183 15.2564C138.183 12.9617 130.721 14.564 130.721 9.59865C130.721 7.40281 132.586 5.58283 135.637 5.58283C137.697 5.58283 139.407 6.21587 140.689 7.42259L139.154 9.51953C138.105 8.53041 136.706 8.07541 135.384 8.07541C134.219 8.07541 133.558 8.58975 133.558 9.38105C133.558 11.4582 141 10.0536 141 14.9795C141 17.3929 139.29 19.2129 135.812 19.2129Z" fill="#4B5563"/>
<path d="M24 0.0214844H0V24.0215H24V0.0214844Z" fill="#4B5563"/>
<path d="M6.85156 5.16602H17.1373V8.5946H8.56586L6.85156 10.3089V8.5946V5.16602Z" fill="white"/>
<path d="M6.85156 10.3086H15.423V13.7371H8.56586L6.85156 15.4514V13.7371V10.3086Z" fill="white"/>
<path d="M6.85156 15.4512H11.9944V18.8797H6.85156V15.4512Z" fill="white"/>
</svg>
