<svg width="94" height="25" viewBox="0 0 94 25" fill="none" xmlns="http://www.w3.org/2000/svg">
<g clip-path="url(#clip0_6813_51324)">
<path fill-rule="evenodd" clip-rule="evenodd" d="M39.7059 0.207031C37.5278 0.207031 36.1095 0.916182 34.8431 3.2969L29.0686 14.1874V4.51259C29.0686 1.62533 27.701 0.207031 25.1683 0.207031C22.6356 0.207031 21.5719 1.06814 20.3056 3.49951L14.835 14.1874V4.61389C14.835 1.52402 13.5686 0.207031 10.4788 0.207031H4.19771C1.81699 0.207031 0.5 1.32141 0.5 3.34755C0.5 5.3737 1.76634 6.58938 4.09641 6.58938H6.67974V18.7969C6.67974 22.2413 9.0098 24.2675 12.3529 24.2675C15.6961 24.2675 17.2157 22.9505 18.8873 19.8606L22.5343 13.0224V18.7969C22.5343 22.1907 24.7631 24.2675 28.1569 24.2675C31.5507 24.2675 32.817 23.1025 34.7418 19.8606L43.1503 5.67762C44.9739 2.58775 43.7075 0.207031 39.6552 0.207031C39.6552 0.207031 39.6552 0.207031 39.7059 0.207031Z" fill="#4B5563"/>
<path fill-rule="evenodd" clip-rule="evenodd" d="M55.5086 0.207031C48.6197 0.207031 43.4023 5.32304 43.4023 12.2626C43.4023 19.2021 48.6703 24.2675 55.5086 24.2675C62.3468 24.2675 67.5641 19.1515 67.6148 12.2626C67.6148 5.32304 62.3468 0.207031 55.5086 0.207031ZM55.5086 16.8721C52.9252 16.8721 51.1523 14.9472 51.1523 12.2626C51.1523 9.57795 52.9252 7.60246 55.5086 7.60246C58.0919 7.60246 59.8648 9.57795 59.8648 12.2626C59.8648 14.9472 58.1425 16.8721 55.5086 16.8721Z" fill="#4B5563"/>
<path fill-rule="evenodd" clip-rule="evenodd" d="M81.3953 0.207031C74.557 0.207031 69.2891 5.32304 69.2891 12.2626C69.2891 19.2021 74.557 24.2675 81.3953 24.2675C88.2335 24.2675 93.5015 19.1515 93.5015 12.2626C93.5015 5.3737 88.2335 0.207031 81.3953 0.207031ZM81.3953 16.8721C78.7613 16.8721 77.0897 14.9472 77.0897 12.2626C77.0897 9.57795 78.8119 7.60246 81.3953 7.60246C83.9786 7.60246 85.7515 9.57795 85.7515 12.2626C85.7515 14.9472 84.0293 16.8721 81.3953 16.8721Z" fill="#4B5563"/>
</g>
<defs>
<clipPath id="clip0_6813_51324">
<rect width="93" height="24.0605" fill="white" transform="translate(0.5 0.207031)"/>
</clipPath>
</defs>
</svg>
