<svg width="76" height="25" viewBox="0 0 76 25" fill="none" xmlns="http://www.w3.org/2000/svg">
<g clip-path="url(#clip0_6813_51261)">
<path d="M6.5752 5.80977H1.32121V1.17578H14.2646L7.47823 16.7481H13.3069V21.2474H0.144531L6.5752 5.83671V5.80977Z" fill="#4B5563"/>
<path d="M20.6951 1.12305V21.2485H15.7148V1.12305H20.6951Z" fill="#4B5563"/>
<path d="M22.7773 0.933594H23.4341C23.7625 0.933594 24.1182 0.933594 24.4739 0.933594H25.4864C25.8148 0.933594 26.0337 0.933594 26.1706 0.933594C26.9641 0.933594 27.7577 0.960534 28.5513 1.04136C29.3449 1.12219 30.1111 1.22995 30.7951 1.41854C31.5066 1.60714 32.1907 1.87655 32.7928 2.19986C33.3948 2.52315 33.9421 2.95422 34.3799 3.46612C34.8451 3.97801 35.1735 4.59767 35.4471 5.35204C35.6934 6.07947 35.8302 6.9416 35.8302 7.93844C35.8302 9.20474 35.6113 10.2285 35.2009 11.0906C34.763 11.9258 34.2157 12.5994 33.4768 13.1382C32.7654 13.6771 31.9171 14.0812 30.9593 14.3506C30.0289 14.62 29.0164 14.8086 27.9493 14.9433V21.3016H22.7773V1.01441V0.933594ZM28.0861 10.0129C28.4418 10.0129 28.7701 9.98602 29.0164 9.87824C29.2901 9.77047 29.509 9.60884 29.6732 9.42022C29.8648 9.20474 30.0016 8.98919 30.0837 8.69279C30.1657 8.42339 30.2205 8.12707 30.2205 7.80374C30.2205 7.48044 30.2205 7.21102 30.1384 6.9416C30.0837 6.64524 30.0016 6.40277 29.8648 6.18724C29.7553 5.94476 29.5637 5.78311 29.3449 5.6484C29.1259 5.51369 28.8523 5.43287 28.5239 5.43287C28.5239 5.43287 28.4144 5.43287 28.305 5.43287H28.0861V9.95909V10.0129Z" fill="#4B5563"/>
<path fill-rule="evenodd" clip-rule="evenodd" d="M74.5774 5.3532L74.5641 5.35458C74.5619 5.35463 74.5598 5.3547 74.5576 5.3548C74.5554 5.35491 74.5531 5.35506 74.5508 5.35524L74.5774 5.3532ZM74.5641 5.35458C74.6897 5.35199 74.7707 5.45114 74.7275 5.55978C74.2765 6.63 71.9504 11.087 63.9166 14.808C63.7612 14.8744 63.807 15.1162 63.9668 15.104L70.7166 15.1334C70.8518 15.1504 70.9445 15.3068 70.8445 15.3962C69.3715 17.0897 60.4472 26.4936 47.3063 23.5181C42.1254 22.3329 38.5404 17.6189 38.5196 11.9238C38.4988 6.22877 41.9821 1.8469 47.8544 0.934916C54.4922 -0.11732 65.621 0.0954852 67.3926 0.150938C67.4991 0.142805 67.5896 0.272171 67.5162 0.359552C67.1374 0.988136 65.7656 2.94639 62.0455 5.68369C61.9432 5.74601 61.987 5.96073 62.1201 5.95056C63.4096 6.01548 67.7199 6.06739 74.5641 5.35458ZM54.9033 8.78213C54.9033 8.78213 55.0504 8.8062 55.0993 8.87858C55.1239 8.95095 55.1239 9.02333 55.0993 9.0957L51.2996 15.8024C51.2016 15.9954 51.0545 16.0678 50.8584 16.0678H49.3631C49.3631 16.0678 49.1915 16.0678 49.1179 15.9954C49.0444 15.923 49.0198 15.8747 48.9953 15.8024L48.3334 12.4732C48.3334 12.4732 48.3089 12.4008 48.2353 12.4008C48.1618 12.4008 48.1373 12.4008 48.1373 12.449L46.2007 15.8265C46.1027 15.9954 45.9311 16.0919 45.7595 16.0919H44.264C44.264 16.0919 44.0924 16.0919 44.0434 16.0195C43.9699 15.9713 43.9453 15.8989 43.9208 15.8265L42.6216 9.11985C42.6216 9.11985 42.6216 8.9751 42.6951 8.90273C42.7687 8.83035 42.8422 8.8062 42.9157 8.8062H44.6808C44.6808 8.8062 44.8524 8.8062 44.9015 8.87858C44.9161 8.90018 44.9307 8.91968 44.9446 8.93828C44.9775 8.98193 45.0068 9.02085 45.024 9.07163L45.7104 12.4732C45.7104 12.4732 45.7349 12.5456 45.8085 12.5456C45.882 12.5456 45.9065 12.5456 45.931 12.4973L47.8676 9.04748C47.9657 8.87858 48.1128 8.78213 48.3089 8.78213H49.5346C49.5346 8.78213 49.7063 8.78213 49.7798 8.8545C49.8533 8.90273 49.8779 8.9751 49.9024 9.04748L50.5643 12.449C50.5643 12.449 50.6132 12.5214 50.6623 12.5456C50.7113 12.5697 50.7604 12.5456 50.7604 12.4973L52.7215 9.04748C52.8196 8.87858 52.9667 8.78213 53.1628 8.78213H54.9033ZM62.9437 12.3277L63.2378 10.6631L63.2624 10.6389C63.3604 10.1082 63.2378 9.6498 62.9192 9.28793C62.6005 8.92605 62.1592 8.73308 61.6199 8.73308H56.2512C56.1286 8.73308 56.0306 8.7813 55.9325 8.85368C55.8345 8.92605 55.7609 9.14318 55.7609 9.14318L54.5598 15.6569C54.5353 15.7775 54.5597 15.874 54.6333 15.9464C54.7069 16.0187 54.9029 16.067 54.9029 16.067H56.3248C56.4474 16.067 56.5454 16.0187 56.6434 15.9464C56.7415 15.874 56.815 15.6569 56.815 15.6569L57.0602 14.3059C57.0602 14.2577 57.1583 14.2335 57.1583 14.2335H60.5902C61.1541 14.2335 61.6444 14.0405 62.1102 13.6787C62.5514 13.3168 62.8456 12.8584 62.9437 12.3277ZM60.8354 10.6872C60.9089 10.7596 60.9089 10.9526 60.9089 10.9526L60.7129 12.0382C60.6884 12.1346 60.6393 12.2312 60.5413 12.3035C60.4432 12.3759 60.2471 12.4001 60.2471 12.4001H57.4769C57.4034 12.4001 57.4034 12.3277 57.4034 12.3277L57.6976 10.6872C57.7221 10.6148 57.7957 10.5907 57.7957 10.5907H60.5902C60.6883 10.5907 60.7864 10.6148 60.8354 10.6872Z" fill="#4B5563"/>
</g>
<defs>
<clipPath id="clip0_6813_51261">
<rect width="75" height="24" fill="white" transform="translate(0.144531 0.0957031)"/>
</clipPath>
</defs>
</svg>
