<?xml version="1.0" encoding="UTF-8"?>
<svg xmlns="http://www.w3.org/2000/svg" width="96" height="50" viewBox="0 0 96 50" fill="none">
  <path d="M26.766 3.842H30.605V5.052H26.766V3.842ZM26.887 8H25.457V0.299999H31.078V1.499H26.887V8ZM34.881 3.501H38.709V4.678H34.881V3.501ZM34.991 6.801H39.336V8H33.561V0.299999H39.182V1.499H34.991V6.801ZM42.0301 8V0.299999H43.2071L46.5731 5.921H45.9571L49.2681 0.299999H50.4451L50.4561 8H49.1031L49.0921 2.423H49.3781L46.5621 7.12H45.9241L43.0641 2.423H43.3941V8H42.0301ZM53.636 8V0.299999H54.813L58.179 5.921H57.563L60.874 0.299999H62.051L62.062 8H60.709L60.698 2.423H60.984L58.168 7.12H57.53L54.67 2.423H55V8H53.636ZM66.5618 3.501H70.3898V4.678H66.5618V3.501ZM66.6718 6.801H71.0168V8H65.2418V0.299999H70.8628V1.499H66.6718V6.801Z" fill="white"></path>
  <path d="M24.8316 20.125C24.8856 20.125 24.9126 20.179 24.9126 20.287C24.9126 20.395 24.8856 20.449 24.8316 20.449C24.2196 20.449 23.6616 20.638 23.1576 21.016C22.6536 21.394 22.0956 22.168 21.4836 23.338L14.3826 36.973C14.3286 37.063 14.2116 37.108 14.0316 37.108C13.8156 37.108 13.6896 37.063 13.6536 36.973L11.8716 29.629L8.06457 36.973C8.01057 37.063 7.89357 37.108 7.71357 37.108C7.49757 37.108 7.37157 37.063 7.33557 36.973L3.79857 22.366C3.61857 21.646 3.41157 21.151 3.17757 20.881C2.94357 20.593 2.60157 20.449 2.15157 20.449C2.09757 20.449 2.07057 20.395 2.07057 20.287C2.07057 20.179 2.09757 20.125 2.15157 20.125L3.44757 20.152C4.02357 20.188 4.44657 20.206 4.71657 20.206C5.25657 20.206 5.83257 20.188 6.44457 20.152L7.41657 20.125C7.48857 20.125 7.52457 20.179 7.52457 20.287C7.52457 20.395 7.48857 20.449 7.41657 20.449C7.12857 20.449 6.88557 20.53 6.68757 20.692C6.48957 20.854 6.39057 21.124 6.39057 21.502C6.39057 21.682 6.41757 21.88 6.47157 22.096L9.19857 33.328L11.6286 28.576L10.1166 22.366C9.93657 21.628 9.75657 21.124 9.57657 20.854C9.39657 20.584 9.13557 20.449 8.79357 20.449C8.73957 20.449 8.71257 20.395 8.71257 20.287C8.71257 20.179 8.73957 20.125 8.79357 20.125L9.90057 20.152C10.4046 20.188 10.7826 20.206 11.0346 20.206C11.4486 20.206 11.8896 20.188 12.3576 20.152L13.1136 20.125C13.1856 20.125 13.2216 20.179 13.2216 20.287C13.2216 20.395 13.1856 20.449 13.1136 20.449C12.9156 20.449 12.7806 20.476 12.7086 20.53C12.6366 20.584 12.6006 20.71 12.6006 20.908C12.6006 21.178 12.6636 21.574 12.7896 22.096L13.6266 25.552L14.7876 23.257C15.2556 22.321 15.4896 21.628 15.4896 21.178C15.4896 20.692 15.2106 20.449 14.6526 20.449C14.6166 20.449 14.5986 20.395 14.5986 20.287C14.5986 20.179 14.6166 20.125 14.6526 20.125L15.4086 20.152C15.8766 20.188 16.2816 20.206 16.6236 20.206C16.8936 20.206 17.2266 20.188 17.6226 20.152L18.5676 20.125C18.6396 20.125 18.6756 20.179 18.6756 20.287C18.6756 20.395 18.6396 20.449 18.5676 20.449C18.2256 20.449 17.9196 20.521 17.6496 20.665C17.3796 20.791 17.0826 21.061 16.7586 21.475C16.4346 21.889 16.0566 22.51 15.6246 23.338L13.8966 26.686L15.4896 33.355L20.6196 23.257C20.9076 22.699 21.0516 22.186 21.0516 21.718C21.0516 21.322 20.9436 21.016 20.7276 20.8C20.5116 20.566 20.1966 20.449 19.7826 20.449C19.7286 20.449 19.7016 20.395 19.7016 20.287C19.7016 20.179 19.7286 20.125 19.7826 20.125L20.8356 20.152C21.4116 20.188 21.9516 20.206 22.4556 20.206C22.7976 20.206 23.2026 20.188 23.6706 20.152L24.8316 20.125ZM31.7699 34.921C31.7879 34.903 31.8149 34.894 31.8509 34.894C31.9049 34.894 31.9499 34.93 31.9859 35.002C32.0219 35.056 32.0219 35.101 31.9859 35.137C30.8339 36.541 29.8259 37.243 28.9619 37.243C28.4939 37.243 28.1519 37.117 27.9359 36.865C27.7199 36.595 27.6119 36.181 27.6119 35.623C27.6119 35.317 27.6389 34.975 27.6929 34.597L28.0169 32.761C27.3329 34.201 26.5139 35.326 25.5599 36.136C24.6239 36.946 23.7059 37.351 22.8059 37.351C22.2479 37.351 21.8069 37.18 21.4829 36.838C21.1589 36.496 20.9969 35.983 20.9969 35.299C20.9969 34.093 21.3929 32.779 22.1849 31.357C22.9949 29.917 23.9849 28.702 25.1549 27.712C26.3429 26.722 27.4589 26.227 28.5029 26.227C28.8269 26.227 29.1599 26.29 29.5019 26.416C29.8619 26.524 30.1679 26.695 30.4199 26.929C30.7619 26.677 31.0409 26.371 31.2569 26.011C31.2929 25.975 31.3289 25.957 31.3649 25.957C31.4189 25.957 31.4729 25.975 31.5269 26.011C31.5809 26.047 31.5989 26.074 31.5809 26.092L30.0149 34.597C29.9609 34.831 29.9339 35.038 29.9339 35.218C29.9339 35.65 30.0599 35.866 30.3119 35.866C30.6539 35.866 31.1399 35.551 31.7699 34.921ZM24.5339 35.38C25.0739 35.38 25.6229 35.101 26.1809 34.543C26.7569 33.967 27.2519 33.274 27.6659 32.464C28.0979 31.636 28.3769 30.871 28.5029 30.169C28.5569 29.863 28.5839 29.593 28.5839 29.359C28.5839 28.783 28.4489 28.342 28.1789 28.036C27.9269 27.712 27.5669 27.55 27.0989 27.55C26.2709 27.55 25.5329 28 24.8849 28.9C24.2549 29.782 23.8139 30.934 23.5619 32.356C23.4719 32.932 23.4269 33.364 23.4269 33.652C23.4269 34.246 23.5259 34.687 23.7239 34.975C23.9219 35.245 24.1919 35.38 24.5339 35.38ZM40.581 26.335C41.049 26.335 41.49 26.506 41.904 26.848C42.336 27.19 42.516 27.577 42.444 28.009C42.408 28.279 42.282 28.531 42.066 28.765C41.85 28.999 41.58 29.116 41.256 29.116C40.932 29.116 40.581 28.963 40.203 28.657C40.077 28.567 39.951 28.486 39.825 28.414C39.699 28.342 39.573 28.306 39.447 28.306C39.141 28.306 38.763 28.783 38.313 29.737C37.863 30.691 37.431 31.834 37.017 33.166C36.621 34.48 36.333 35.641 36.153 36.649V36.676C36.117 36.838 35.973 36.964 35.721 37.054C35.469 37.162 35.109 37.216 34.641 37.216C34.047 37.216 33.75 37.144 33.75 37C33.768 36.874 33.822 36.604 33.912 36.19C34.02 35.776 34.11 35.38 34.182 35.002L35.289 28.981C35.325 28.693 35.343 28.504 35.343 28.414C35.343 27.91 35.181 27.658 34.857 27.658C34.497 27.658 33.984 28.018 33.318 28.738C33.3 28.756 33.273 28.765 33.237 28.765C33.165 28.765 33.111 28.738 33.075 28.684C33.039 28.612 33.048 28.549 33.102 28.495C33.75 27.739 34.326 27.19 34.83 26.848C35.352 26.506 35.874 26.335 36.396 26.335C36.846 26.335 37.17 26.461 37.368 26.713C37.566 26.947 37.665 27.298 37.665 27.766C37.665 28.036 37.638 28.333 37.584 28.657L37.044 31.627C38.106 28.099 39.285 26.335 40.581 26.335ZM51.3542 34.597C51.3002 34.867 51.2732 35.083 51.2732 35.245C51.2732 35.659 51.4082 35.866 51.6782 35.866C51.8582 35.866 52.0562 35.785 52.2722 35.623C52.5062 35.461 52.7852 35.227 53.1092 34.921C53.1452 34.885 53.1812 34.867 53.2172 34.867C53.2712 34.867 53.3162 34.903 53.3522 34.975C53.3882 35.029 53.3792 35.083 53.3252 35.137C52.7132 35.857 52.1732 36.388 51.7052 36.73C51.2372 37.072 50.7512 37.243 50.2472 37.243C49.3832 37.243 48.9512 36.73 48.9512 35.704C48.9512 35.344 48.9872 34.975 49.0592 34.597L49.4102 32.734C48.6722 34.192 47.8802 35.326 47.0342 36.136C46.2062 36.946 45.3512 37.351 44.4692 37.351C43.7852 37.351 43.2092 37.135 42.7412 36.703C42.2912 36.253 42.0662 35.578 42.0662 34.678C42.0662 34.318 42.1022 33.958 42.1742 33.598C42.4082 32.338 42.9212 31.141 43.7132 30.007C44.5052 28.873 45.4232 27.964 46.4672 27.28C47.5112 26.578 48.5192 26.227 49.4912 26.227C49.9052 26.227 50.2652 26.29 50.5712 26.416L51.5432 21.097C51.5972 20.737 51.6242 20.44 51.6242 20.206C51.6242 19.684 51.4532 19.423 51.1112 19.423C50.8952 19.423 50.5172 19.549 49.9772 19.801H49.9502C49.8602 19.801 49.8062 19.756 49.7882 19.666C49.7702 19.558 49.7972 19.495 49.8692 19.477L54.0542 17.425H54.1082C54.1802 17.425 54.2432 17.452 54.2972 17.506C54.3692 17.56 54.3962 17.605 54.3782 17.641L51.3542 34.597ZM45.8192 35.461C46.3952 35.461 46.9532 35.191 47.4932 34.651C48.0512 34.111 48.5282 33.454 48.9242 32.68C49.3382 31.888 49.6352 31.141 49.8152 30.439L49.9502 29.71C50.0222 29.026 49.8602 28.495 49.4642 28.117C49.0682 27.739 48.5642 27.55 47.9522 27.55C46.1882 27.55 45.0542 29.08 44.5502 32.14C44.4782 32.572 44.4422 33.013 44.4422 33.463C44.4422 34.795 44.9012 35.461 45.8192 35.461ZM61.7275 26.335C62.1955 26.335 62.6365 26.506 63.0505 26.848C63.4825 27.19 63.6625 27.577 63.5905 28.009C63.5545 28.279 63.4285 28.531 63.2125 28.765C62.9965 28.999 62.7265 29.116 62.4025 29.116C62.0785 29.116 61.7275 28.963 61.3495 28.657C61.2235 28.567 61.0975 28.486 60.9715 28.414C60.8455 28.342 60.7195 28.306 60.5935 28.306C60.2875 28.306 59.9095 28.783 59.4595 29.737C59.0095 30.691 58.5775 31.834 58.1635 33.166C57.7675 34.48 57.4795 35.641 57.2995 36.649V36.676C57.2635 36.838 57.1195 36.964 56.8675 37.054C56.6155 37.162 56.2555 37.216 55.7875 37.216C55.1935 37.216 54.8965 37.144 54.8965 37C54.9145 36.874 54.9685 36.604 55.0585 36.19C55.1665 35.776 55.2565 35.38 55.3285 35.002L56.4355 28.981C56.4715 28.693 56.4895 28.504 56.4895 28.414C56.4895 27.91 56.3275 27.658 56.0035 27.658C55.6435 27.658 55.1305 28.018 54.4645 28.738C54.4465 28.756 54.4195 28.765 54.3835 28.765C54.3115 28.765 54.2575 28.738 54.2215 28.684C54.1855 28.612 54.1945 28.549 54.2485 28.495C54.8965 27.739 55.4725 27.19 55.9765 26.848C56.4985 26.506 57.0205 26.335 57.5425 26.335C57.9925 26.335 58.3165 26.461 58.5145 26.713C58.7125 26.947 58.8115 27.298 58.8115 27.766C58.8115 28.036 58.7845 28.333 58.7305 28.657L58.1905 31.627C59.2525 28.099 60.4315 26.335 61.7275 26.335ZM67.1239 37.378C65.9359 37.378 65.0269 37 64.3969 36.244C63.7849 35.47 63.4789 34.471 63.4789 33.247C63.4789 32.707 63.5239 32.221 63.6139 31.789C63.8119 30.709 64.1989 29.746 64.7749 28.9C65.3689 28.054 66.0799 27.397 66.9079 26.929C67.7359 26.461 68.6269 26.227 69.5809 26.227C70.7869 26.227 71.7049 26.596 72.3349 27.334C72.9829 28.054 73.3069 29.026 73.3069 30.25C73.3069 30.736 73.2529 31.249 73.1449 31.789C72.9109 32.977 72.4789 33.994 71.8489 34.84C71.2369 35.668 70.5079 36.298 69.6619 36.73C68.8339 37.162 67.9879 37.378 67.1239 37.378ZM68.0419 36.703C68.6179 36.703 69.1129 36.37 69.5269 35.704C69.9589 35.038 70.2739 34.129 70.4719 32.977C70.5979 32.275 70.6609 31.564 70.6609 30.844C70.6609 29.674 70.4809 28.72 70.1209 27.982C69.7789 27.244 69.3019 26.875 68.6899 26.875C68.1499 26.875 67.6639 27.19 67.2319 27.82C66.8179 28.45 66.5029 29.386 66.2869 30.628C66.1609 31.33 66.0979 32.041 66.0979 32.761C66.0979 33.931 66.2689 34.885 66.6109 35.623C66.9529 36.343 67.4299 36.703 68.0419 36.703ZM83.3834 26.227C84.0854 26.227 84.6344 26.497 85.0304 27.037C85.4264 27.559 85.6244 28.27 85.6244 29.17C85.6244 29.494 85.5974 29.845 85.5434 30.223C85.2734 31.681 84.7154 32.95 83.8694 34.03C83.0234 35.11 82.0604 35.938 80.9804 36.514C79.9184 37.072 78.9374 37.351 78.0374 37.351C77.0834 37.351 76.3364 37.162 75.7964 36.784C75.2744 36.388 75.0134 35.848 75.0134 35.164C75.0134 35.038 75.0314 34.867 75.0674 34.651L77.5514 21.097C77.6054 20.737 77.6324 20.44 77.6324 20.206C77.6324 19.684 77.4614 19.423 77.1194 19.423C76.9034 19.423 76.5254 19.549 75.9854 19.801H75.9584C75.8864 19.801 75.8324 19.756 75.7964 19.666C75.7784 19.558 75.8054 19.495 75.8774 19.477L80.0624 17.425H80.1164C80.1884 17.425 80.2514 17.452 80.3054 17.506C80.3774 17.56 80.4044 17.605 80.3864 17.641L78.0644 30.709C78.6944 29.359 79.4774 28.279 80.4134 27.469C81.3674 26.641 82.3574 26.227 83.3834 26.227ZM82.8704 31.06C82.9604 30.682 83.0054 30.259 83.0054 29.791C83.0054 29.251 82.9064 28.828 82.7084 28.522C82.5284 28.198 82.2404 28.036 81.8444 28.036C80.8544 28.036 79.9544 28.63 79.1444 29.818C78.3344 30.988 77.7584 32.518 77.4164 34.408C77.3984 34.498 77.3894 34.642 77.3894 34.84C77.3894 35.344 77.5424 35.767 77.8484 36.109C78.1724 36.433 78.5684 36.595 79.0364 36.595C79.5764 36.595 80.1074 36.379 80.6294 35.947C81.1514 35.497 81.6104 34.858 82.0064 34.03C82.4024 33.184 82.6904 32.194 82.8704 31.06ZM93.351 26.227C94.035 26.227 94.566 26.344 94.944 26.578C95.322 26.812 95.511 27.136 95.511 27.55C95.511 28.36 94.908 29.125 93.702 29.845C92.514 30.547 91.074 31.06 89.382 31.384C89.328 31.78 89.301 32.167 89.301 32.545C89.301 33.625 89.526 34.498 89.976 35.164C90.426 35.812 91.092 36.136 91.974 36.136C92.352 36.136 92.757 36.073 93.189 35.947C93.639 35.803 94.044 35.587 94.404 35.299H94.431C94.485 35.299 94.53 35.326 94.566 35.38C94.62 35.434 94.629 35.479 94.593 35.515C93.945 36.145 93.261 36.604 92.541 36.892C91.821 37.18 91.101 37.324 90.381 37.324C89.139 37.324 88.203 36.946 87.573 36.19C86.961 35.434 86.655 34.48 86.655 33.328C86.655 32.932 86.7 32.491 86.79 32.005C86.97 31.033 87.366 30.106 87.978 29.224C88.608 28.342 89.391 27.622 90.327 27.064C91.263 26.506 92.271 26.227 93.351 26.227ZM92.784 28.252C92.802 28.18 92.811 28.072 92.811 27.928C92.811 27.622 92.73 27.388 92.568 27.226C92.424 27.046 92.217 26.956 91.947 26.956C91.371 26.956 90.858 27.325 90.408 28.063C89.976 28.801 89.652 29.764 89.436 30.952C91.506 30.412 92.622 29.512 92.784 28.252Z" fill="white"></path>
  <g clip-path="url(#clip0_6111_764)">
    <rect x="-1152" y="49" width="1920" height="2" fill="white"></rect>
  </g>
  <defs>
    <clipPath id="clip0_6111_764">
      <rect width="20" height="1" fill="white" transform="translate(38 49)"></rect>
    </clipPath>
  </defs>
</svg>
